<?xml version="1.0" encoding="utf-8"?>
<!-- Generator: Adobe Illustrator 21.0.0, SVG Export Plug-In . SVG Version: 6.00 Build 0)  -->
<svg version="1.1" id="Capa_1" xmlns="http://www.w3.org/2000/svg" xmlns:xlink="http://www.w3.org/1999/xlink" x="0px" y="0px"
	 viewBox="0 0 200 57" style="enable-background:new 0 0 200 57;" xml:space="preserve">
<style type="text/css">
	.st0{fill:#FFFFFF;}
	.st1{fill:#4980BB;}
</style>
<g>
	<rect x="3" y="4.2" class="st0" width="193.9" height="50"/>
	<path class="st1" d="M197.3,54.7H2.6V3.8h194.7V54.7z M3.4,53.8h193.1V4.6H3.4V53.8z"/>
</g>
<g>
	<rect x="3" y="4.2" class="st1" width="52.7" height="50"/>
</g>
<g>
	<g>
		<path class="st1" d="M65.7,43.6c0.2,0.1,0.4,0.2,0.6,0.3c0.2,0.1,0.5,0.1,0.8,0.1c0.2,0,0.4,0,0.6-0.1c0.2-0.1,0.3-0.1,0.5-0.2
			c0.1-0.1,0.2-0.3,0.3-0.4c0.1-0.2,0.1-0.4,0.1-0.6c0-0.2-0.1-0.4-0.2-0.6c-0.1-0.2-0.3-0.3-0.6-0.5c-0.2-0.1-0.5-0.3-0.7-0.4
			c-0.3-0.1-0.5-0.3-0.7-0.5c-0.2-0.2-0.4-0.4-0.6-0.6c-0.1-0.2-0.2-0.5-0.2-0.8c0-0.3,0.1-0.5,0.2-0.7c0.1-0.2,0.3-0.4,0.4-0.5
			c0.2-0.2,0.4-0.3,0.7-0.3c0.3-0.1,0.5-0.1,0.8-0.1c0.2,0,0.4,0,0.6,0c0.2,0,0.5,0.1,0.7,0.2l-0.1,0.6c-0.1-0.1-0.3-0.1-0.5-0.2
			c-0.2,0-0.4-0.1-0.7-0.1c-0.2,0-0.3,0-0.5,0.1c-0.2,0-0.3,0.1-0.5,0.2c-0.1,0.1-0.2,0.2-0.3,0.4c-0.1,0.1-0.1,0.3-0.1,0.5
			c0,0.2,0.1,0.4,0.2,0.6c0.1,0.2,0.3,0.3,0.6,0.4c0.2,0.1,0.5,0.3,0.7,0.4c0.3,0.1,0.5,0.3,0.7,0.5c0.2,0.2,0.4,0.4,0.6,0.6
			c0.1,0.2,0.2,0.5,0.2,0.8c0,0.3-0.1,0.6-0.2,0.9c-0.1,0.2-0.3,0.4-0.5,0.6c-0.2,0.2-0.4,0.3-0.7,0.3c-0.3,0.1-0.5,0.1-0.8,0.1
			c-0.3,0-0.6,0-0.9-0.1s-0.5-0.1-0.6-0.2L65.7,43.6z"/>
	</g>
	<g>
		<path class="st1" d="M70.6,37.8h0.7v6.7h-0.7V37.8z"/>
	</g>
	<g>
		<path class="st1" d="M72.6,43.6c0.2,0.1,0.4,0.2,0.6,0.3c0.2,0.1,0.5,0.1,0.8,0.1c0.2,0,0.4,0,0.6-0.1s0.3-0.1,0.5-0.2
			c0.1-0.1,0.2-0.3,0.3-0.4c0.1-0.2,0.1-0.4,0.1-0.6c0-0.2-0.1-0.4-0.2-0.6c-0.1-0.2-0.3-0.3-0.6-0.5c-0.2-0.1-0.5-0.3-0.7-0.4
			c-0.3-0.1-0.5-0.3-0.7-0.5c-0.2-0.2-0.4-0.4-0.6-0.6s-0.2-0.5-0.2-0.8c0-0.3,0.1-0.5,0.2-0.7c0.1-0.2,0.3-0.4,0.4-0.5
			c0.2-0.2,0.4-0.3,0.7-0.3c0.3-0.1,0.5-0.1,0.8-0.1c0.2,0,0.4,0,0.6,0c0.2,0,0.5,0.1,0.7,0.2l-0.1,0.6c-0.1-0.1-0.3-0.1-0.5-0.2
			c-0.2,0-0.4-0.1-0.7-0.1c-0.2,0-0.3,0-0.5,0.1c-0.2,0-0.3,0.1-0.5,0.2c-0.1,0.1-0.2,0.2-0.3,0.4c-0.1,0.1-0.1,0.3-0.1,0.5
			c0,0.2,0.1,0.4,0.2,0.6c0.1,0.2,0.3,0.3,0.6,0.4c0.2,0.1,0.5,0.3,0.7,0.4c0.3,0.1,0.5,0.3,0.7,0.5c0.2,0.2,0.4,0.4,0.6,0.6
			c0.1,0.2,0.2,0.5,0.2,0.8c0,0.3-0.1,0.6-0.2,0.9c-0.1,0.2-0.3,0.4-0.5,0.6c-0.2,0.2-0.4,0.3-0.7,0.3c-0.3,0.1-0.5,0.1-0.8,0.1
			c-0.3,0-0.6,0-0.9-0.1s-0.5-0.1-0.6-0.2L72.6,43.6z"/>
	</g>
	<g>
		<path class="st1" d="M78.8,38.4h-2v-0.6h4.6v0.6h-2v6.1h-0.7V38.4z"/>
	</g>
	<g>
		<path class="st1" d="M82.3,37.8h3.3v0.6H83v2.4h2.5v0.6H83v2.6h2.7v0.6h-3.4V37.8z"/>
	</g>
	<g>
		<path class="st1" d="M87.1,37.8h1l2.4,5.9l2.4-5.9h0.9v6.7h-0.7v-6h0l-2.4,6h-0.6l-2.5-6h0v6h-0.7V37.8z"/>
	</g>
	<g>
		<path class="st1" d="M97.6,37.8h0.7l2.6,6.7h-0.7l-0.7-1.8h-3.4l-0.7,1.8h-0.6L97.6,37.8z M97.9,38.5l-1.5,3.7h2.9L97.9,38.5z"/>
	</g>
	<g>
		<path class="st1" d="M109.1,41.4h-1.5v-0.6h2.2v3.3c-0.3,0.1-0.7,0.3-1,0.3c-0.3,0.1-0.7,0.1-1.1,0.1c-0.5,0-1-0.1-1.4-0.2
			c-0.4-0.2-0.8-0.4-1.1-0.7c-0.3-0.3-0.5-0.7-0.7-1.1c-0.2-0.4-0.2-0.9-0.2-1.4c0-0.5,0.1-1,0.2-1.4c0.2-0.4,0.4-0.8,0.7-1.1
			c0.3-0.3,0.6-0.5,1.1-0.7c0.4-0.2,0.9-0.3,1.4-0.3c0.1,0,0.3,0,0.4,0c0.2,0,0.3,0,0.5,0.1c0.2,0,0.3,0.1,0.5,0.1
			c0.2,0,0.3,0.1,0.4,0.1l-0.1,0.6c-0.3-0.1-0.5-0.2-0.8-0.3c-0.3,0-0.6-0.1-0.9-0.1c-0.4,0-0.8,0.1-1.1,0.2
			c-0.3,0.1-0.6,0.3-0.8,0.6c-0.2,0.3-0.4,0.6-0.5,0.9c-0.1,0.4-0.2,0.7-0.2,1.1c0,0.4,0.1,0.8,0.2,1.2c0.1,0.4,0.3,0.7,0.5,0.9
			c0.2,0.3,0.5,0.4,0.8,0.6c0.3,0.1,0.7,0.2,1.2,0.2c0.1,0,0.2,0,0.3,0c0.1,0,0.3,0,0.4,0c0.1,0,0.3,0,0.4-0.1
			c0.1,0,0.2-0.1,0.3-0.1V41.4z"/>
	</g>
	<g>
		<path class="st1" d="M111.5,37.8h3.3v0.6h-2.6v2.4h2.5v0.6h-2.5v2.6h2.7v0.6h-3.4V37.8z"/>
	</g>
	<g>
		<path class="st1" d="M116.1,43.6c0.2,0.1,0.4,0.2,0.6,0.3c0.2,0.1,0.5,0.1,0.8,0.1c0.2,0,0.4,0,0.6-0.1c0.2-0.1,0.3-0.1,0.5-0.2
			c0.1-0.1,0.2-0.3,0.3-0.4c0.1-0.2,0.1-0.4,0.1-0.6c0-0.2-0.1-0.4-0.2-0.6c-0.1-0.2-0.3-0.3-0.6-0.5c-0.2-0.1-0.5-0.3-0.7-0.4
			c-0.3-0.1-0.5-0.3-0.7-0.5c-0.2-0.2-0.4-0.4-0.6-0.6c-0.1-0.2-0.2-0.5-0.2-0.8c0-0.3,0.1-0.5,0.2-0.7c0.1-0.2,0.3-0.4,0.4-0.5
			c0.2-0.2,0.4-0.3,0.7-0.3c0.3-0.1,0.5-0.1,0.8-0.1c0.2,0,0.4,0,0.6,0c0.2,0,0.5,0.1,0.7,0.2l-0.1,0.6c-0.1-0.1-0.3-0.1-0.5-0.2
			c-0.2,0-0.4-0.1-0.7-0.1c-0.2,0-0.3,0-0.5,0.1c-0.2,0-0.3,0.1-0.5,0.2c-0.1,0.1-0.2,0.2-0.3,0.4c-0.1,0.1-0.1,0.3-0.1,0.5
			c0,0.2,0.1,0.4,0.2,0.6c0.1,0.2,0.3,0.3,0.6,0.4c0.2,0.1,0.5,0.3,0.7,0.4c0.3,0.1,0.5,0.3,0.7,0.5c0.2,0.2,0.4,0.4,0.6,0.6
			c0.1,0.2,0.2,0.5,0.2,0.8c0,0.3-0.1,0.6-0.2,0.9c-0.1,0.2-0.3,0.4-0.5,0.6c-0.2,0.2-0.4,0.3-0.7,0.3c-0.3,0.1-0.5,0.1-0.8,0.1
			c-0.3,0-0.6,0-0.9-0.1s-0.5-0.1-0.6-0.2L116.1,43.6z"/>
	</g>
	<g>
		<path class="st1" d="M122.2,38.4h-2v-0.6h4.6v0.6h-2v6.1h-0.7V38.4z"/>
	</g>
	<g>
		<path class="st1" d="M125.7,37.8h0.7v6.7h-0.7V37.8z"/>
	</g>
	<g>
		<path class="st1" d="M127.8,39.9c0.1-0.4,0.3-0.8,0.5-1.1c0.2-0.3,0.5-0.6,0.9-0.8c0.4-0.2,0.8-0.3,1.3-0.3s0.9,0.1,1.3,0.3
			c0.4,0.2,0.7,0.4,0.9,0.8c0.2,0.3,0.4,0.7,0.5,1.1c0.1,0.4,0.2,0.8,0.2,1.3c0,0.5-0.1,1-0.2,1.4c-0.1,0.4-0.3,0.8-0.6,1.1
			c-0.2,0.3-0.6,0.5-0.9,0.7s-0.8,0.3-1.3,0.3s-0.9-0.1-1.3-0.3s-0.7-0.4-0.9-0.7c-0.2-0.3-0.4-0.7-0.6-1.1
			c-0.1-0.4-0.2-0.9-0.2-1.4C127.6,40.7,127.6,40.3,127.8,39.9z M129.5,38.5c-0.3,0.2-0.5,0.4-0.7,0.7c-0.2,0.3-0.3,0.6-0.4,0.9
			c-0.1,0.3-0.1,0.7-0.1,1c0,0.4,0,0.7,0.1,1c0.1,0.3,0.2,0.6,0.4,0.9c0.2,0.3,0.4,0.5,0.7,0.7c0.3,0.2,0.6,0.2,1,0.2
			c0.4,0,0.7-0.1,1-0.2c0.3-0.2,0.5-0.4,0.7-0.7c0.2-0.3,0.3-0.6,0.4-0.9c0.1-0.3,0.1-0.7,0.1-1c0-0.3,0-0.7-0.1-1
			c-0.1-0.3-0.2-0.7-0.4-0.9c-0.2-0.3-0.4-0.5-0.7-0.7c-0.3-0.2-0.6-0.2-1-0.2C130.1,38.3,129.8,38.4,129.5,38.5z M130.8,36.2h0.8
			l-1.2,1.4H130L130.8,36.2z"/>
	</g>
	<g>
		<path class="st1" d="M134.7,37.8h0.8l3.4,5.9h0v-5.9h0.7v6.7h-0.9l-3.3-5.7h0v5.7h-0.7V37.8z"/>
	</g>
	<g>
		<path class="st1" d="M143.7,37.8h1.7c0.6,0,1.1,0.1,1.5,0.2c0.4,0.2,0.8,0.4,1,0.7c0.3,0.3,0.5,0.6,0.6,1.1
			c0.1,0.4,0.2,0.9,0.2,1.3c0,0.6-0.1,1.1-0.3,1.5c-0.2,0.4-0.5,0.8-0.8,1c-0.3,0.3-0.7,0.5-1.2,0.6c-0.5,0.1-1,0.2-1.5,0.2h-1.2
			V37.8z M144.4,43.9h0.5c0.5,0,0.9-0.1,1.3-0.2c0.4-0.1,0.7-0.3,1-0.5c0.3-0.2,0.5-0.5,0.6-0.9c0.2-0.4,0.2-0.8,0.2-1.3
			s-0.1-0.9-0.2-1.3c-0.1-0.3-0.3-0.6-0.6-0.8c-0.2-0.2-0.5-0.4-0.9-0.5c-0.3-0.1-0.7-0.1-1.1-0.1h-1V43.9z"/>
	</g>
	<g>
		<path class="st1" d="M150.2,37.8h3.3v0.6h-2.6v2.4h2.5v0.6h-2.5v2.6h2.7v0.6h-3.4V37.8z"/>
	</g>
	<g>
		<path class="st1" d="M157.4,39.9c0.1-0.4,0.3-0.8,0.5-1.1c0.2-0.3,0.5-0.6,0.9-0.8c0.4-0.2,0.8-0.3,1.3-0.3s0.9,0.1,1.3,0.3
			c0.4,0.2,0.7,0.4,0.9,0.8c0.2,0.3,0.4,0.7,0.5,1.1c0.1,0.4,0.2,0.8,0.2,1.3c0,0.5-0.1,1-0.2,1.4c-0.1,0.4-0.3,0.8-0.6,1.1
			c-0.2,0.3-0.6,0.5-0.9,0.7s-0.8,0.3-1.3,0.3s-0.9-0.1-1.3-0.3s-0.7-0.4-0.9-0.7c-0.2-0.3-0.4-0.7-0.6-1.1
			c-0.1-0.4-0.2-0.9-0.2-1.4C157.3,40.7,157.3,40.3,157.4,39.9z M159.2,38.5c-0.3,0.2-0.5,0.4-0.7,0.7c-0.2,0.3-0.3,0.6-0.4,0.9
			c-0.1,0.3-0.1,0.7-0.1,1c0,0.4,0,0.7,0.1,1c0.1,0.3,0.2,0.6,0.4,0.9c0.2,0.3,0.4,0.5,0.7,0.7c0.3,0.2,0.6,0.2,1,0.2
			c0.4,0,0.7-0.1,1-0.2c0.3-0.2,0.5-0.4,0.7-0.7c0.2-0.3,0.3-0.6,0.4-0.9c0.1-0.3,0.1-0.7,0.1-1c0-0.3,0-0.7-0.1-1
			c-0.1-0.3-0.2-0.7-0.4-0.9c-0.2-0.3-0.4-0.5-0.7-0.7c-0.3-0.2-0.6-0.2-1-0.2C159.8,38.3,159.5,38.4,159.2,38.5z"/>
	</g>
	<g>
		<path class="st1" d="M164.4,37.8h1.6c0.3,0,0.5,0,0.8,0.1c0.3,0.1,0.5,0.1,0.7,0.3s0.4,0.3,0.5,0.5c0.1,0.2,0.2,0.5,0.2,0.8
			c0,0.9-0.4,1.4-1.2,1.5v0c0.4,0.1,0.8,0.2,1,0.5c0.3,0.3,0.4,0.6,0.4,1.1c0,0.4-0.1,0.7-0.2,0.9s-0.3,0.4-0.6,0.6
			c-0.2,0.1-0.5,0.3-0.8,0.3c-0.3,0.1-0.6,0.1-1,0.1h-1.3V37.8z M165.1,43.9h0.7c0.2,0,0.4,0,0.7-0.1c0.2,0,0.4-0.1,0.6-0.2
			c0.2-0.1,0.3-0.2,0.4-0.4c0.1-0.2,0.2-0.4,0.2-0.7c0-0.3-0.1-0.5-0.2-0.7c-0.1-0.2-0.3-0.3-0.5-0.4c-0.2-0.1-0.4-0.1-0.6-0.2
			c-0.2,0-0.5,0-0.7,0h-0.6V43.9z M165.1,40.7h0.7c0.2,0,0.4,0,0.5,0c0.2,0,0.4-0.1,0.5-0.2c0.2-0.1,0.3-0.2,0.4-0.4
			c0.1-0.2,0.2-0.4,0.2-0.6c0-0.2-0.1-0.4-0.1-0.6c-0.1-0.1-0.2-0.3-0.4-0.3c-0.1-0.1-0.3-0.1-0.5-0.2c-0.2,0-0.3,0-0.5,0h-0.9V40.7
			z"/>
	</g>
	<g>
		<path class="st1" d="M169.8,37.8h1.7c0.6,0,1.1,0.1,1.4,0.4c0.4,0.3,0.5,0.7,0.5,1.3c0,0.2,0,0.4-0.1,0.6
			c-0.1,0.2-0.2,0.3-0.3,0.5c-0.1,0.1-0.3,0.2-0.5,0.3c-0.2,0.1-0.4,0.1-0.6,0.2v0c0.1,0,0.2,0,0.3,0.1c0.1,0,0.2,0.1,0.2,0.2
			c0.1,0.1,0.1,0.1,0.2,0.2c0,0.1,0.1,0.2,0.1,0.3l1.1,2.6h-0.7l-1-2.3c-0.1-0.2-0.2-0.4-0.3-0.5c-0.1-0.1-0.2-0.2-0.3-0.3
			s-0.2-0.1-0.3-0.1c-0.1,0-0.3,0-0.4,0h-0.5v3.1h-0.7V37.8z M170.5,40.8h0.7c0.2,0,0.4,0,0.6-0.1c0.2,0,0.4-0.1,0.5-0.2
			c0.2-0.1,0.3-0.2,0.4-0.4c0.1-0.2,0.2-0.3,0.2-0.6c0-0.3,0-0.5-0.1-0.6c-0.1-0.2-0.2-0.3-0.4-0.3c-0.2-0.1-0.3-0.1-0.5-0.1
			c-0.2,0-0.4,0-0.6,0h-0.7V40.8z"/>
	</g>
	<g>
		<path class="st1" d="M177.1,37.8h0.7l2.6,6.7h-0.7l-0.7-1.8h-3.4l-0.7,1.8h-0.6L177.1,37.8z M177.4,38.5l-1.4,3.7h2.9L177.4,38.5z
			"/>
	</g>
	<g>
		<path class="st1" d="M181.3,43.6c0.2,0.1,0.4,0.2,0.6,0.3c0.2,0.1,0.5,0.1,0.8,0.1c0.2,0,0.4,0,0.6-0.1c0.2-0.1,0.3-0.1,0.5-0.2
			c0.1-0.1,0.2-0.3,0.3-0.4c0.1-0.2,0.1-0.4,0.1-0.6c0-0.2-0.1-0.4-0.2-0.6c-0.1-0.2-0.3-0.3-0.6-0.5c-0.2-0.1-0.5-0.3-0.7-0.4
			c-0.3-0.1-0.5-0.3-0.7-0.5c-0.2-0.2-0.4-0.4-0.6-0.6c-0.1-0.2-0.2-0.5-0.2-0.8c0-0.3,0.1-0.5,0.2-0.7c0.1-0.2,0.3-0.4,0.4-0.5
			c0.2-0.2,0.4-0.3,0.7-0.3c0.3-0.1,0.5-0.1,0.8-0.1c0.2,0,0.4,0,0.6,0c0.2,0,0.5,0.1,0.7,0.2l-0.1,0.6c-0.1-0.1-0.3-0.1-0.5-0.2
			c-0.2,0-0.4-0.1-0.7-0.1c-0.2,0-0.3,0-0.5,0.1c-0.2,0-0.3,0.1-0.5,0.2c-0.1,0.1-0.2,0.2-0.3,0.4c-0.1,0.1-0.1,0.3-0.1,0.5
			c0,0.2,0.1,0.4,0.2,0.6c0.1,0.2,0.3,0.3,0.6,0.4c0.2,0.1,0.5,0.3,0.7,0.4c0.3,0.1,0.5,0.3,0.7,0.5c0.2,0.2,0.4,0.4,0.6,0.6
			c0.1,0.2,0.2,0.5,0.2,0.8c0,0.3-0.1,0.6-0.2,0.9c-0.1,0.2-0.3,0.4-0.5,0.6c-0.2,0.2-0.4,0.3-0.7,0.3c-0.3,0.1-0.5,0.1-0.8,0.1
			c-0.3,0-0.6,0-0.9-0.1c-0.3-0.1-0.5-0.1-0.6-0.2L181.3,43.6z"/>
	</g>
</g>
<g>
	<g>
		<path class="st1" d="M75.8,17.1c-1.1-0.5-2.2-0.7-3.3-0.7c-0.3,0-0.6,0-0.9,0.1c-0.3,0.1-0.6,0.2-0.8,0.4
			c-0.3,0.2-0.5,0.4-0.6,0.7c-0.2,0.3-0.3,0.7-0.3,1.2c0,0.4,0.1,0.7,0.3,0.9c0.2,0.2,0.5,0.5,0.8,0.7c0.4,0.2,0.8,0.4,1.2,0.5
			c0.4,0.2,0.8,0.4,1.3,0.6c0.5,0.2,0.9,0.4,1.3,0.6c0.4,0.3,0.8,0.6,1.1,0.9c0.3,0.4,0.6,0.8,0.8,1.3c0.2,0.5,0.3,1.1,0.3,1.9
			c0,1.8-0.6,3.1-1.8,3.9c-1.2,0.8-2.6,1.2-4.4,1.2c-0.9,0-1.6-0.1-2.1-0.2c-0.6-0.1-1.3-0.3-2.1-0.5l0.3-3c1.2,0.7,2.4,1,3.7,1
			c0.7,0,1.3-0.2,2-0.5c0.6-0.4,1-0.9,1-1.7c0-0.4-0.1-0.8-0.3-1c-0.2-0.3-0.5-0.5-0.8-0.7c-0.7-0.4-1.5-0.8-2.5-1.1
			c-0.5-0.2-0.9-0.4-1.3-0.7c-0.4-0.2-0.8-0.5-1.2-0.9c-0.3-0.4-0.6-0.8-0.8-1.3c-0.2-0.5-0.3-1.1-0.3-1.8c0-1.9,0.6-3.2,1.8-4
			c1.1-0.8,2.4-1.1,3.9-1.1c1.4,0,2.7,0.2,3.9,0.6L75.8,17.1z"/>
	</g>
	<g>
		<path class="st1" d="M80.2,14h3.3V31h-3.3V14z"/>
	</g>
	<g>
		<path class="st1" d="M96,17.1c-1.1-0.5-2.2-0.7-3.3-0.7c-0.3,0-0.6,0-0.9,0.1c-0.3,0.1-0.6,0.2-0.8,0.4c-0.3,0.2-0.5,0.4-0.6,0.7
			c-0.2,0.3-0.3,0.7-0.3,1.2c0,0.4,0.1,0.7,0.3,0.9c0.2,0.2,0.5,0.5,0.8,0.7c0.4,0.2,0.8,0.4,1.2,0.5c0.4,0.2,0.8,0.4,1.3,0.6
			c0.5,0.2,0.9,0.4,1.3,0.6c0.4,0.3,0.8,0.6,1.1,0.9c0.3,0.4,0.6,0.8,0.8,1.3c0.2,0.5,0.3,1.1,0.3,1.9c0,1.8-0.6,3.1-1.8,3.9
			c-1.2,0.8-2.6,1.2-4.4,1.2c-0.9,0-1.6-0.1-2.1-0.2c-0.6-0.1-1.3-0.3-2.1-0.5l0.3-3c1.2,0.7,2.4,1,3.7,1c0.7,0,1.3-0.2,2-0.5
			c0.6-0.4,1-0.9,1-1.7c0-0.4-0.1-0.8-0.3-1c-0.2-0.3-0.5-0.5-0.8-0.7c-0.7-0.4-1.5-0.8-2.5-1.1c-0.5-0.2-0.9-0.4-1.3-0.7
			c-0.4-0.2-0.8-0.5-1.2-0.9c-0.3-0.4-0.6-0.8-0.8-1.3c-0.2-0.5-0.3-1.1-0.3-1.8c0-1.9,0.6-3.2,1.8-4c1.1-0.8,2.4-1.1,3.9-1.1
			c1.4,0,2.7,0.2,3.9,0.6L96,17.1z"/>
	</g>
	<g>
		<path class="st1" d="M113.6,17.3c-1.4-0.6-2.8-0.9-4.2-0.9c-1.9,0-3.4,0.6-4.4,1.8c-1,1.1-1.6,2.6-1.6,4.4c0,1.8,0.5,3.2,1.5,4.3
			c1,1.2,2.3,1.7,4.1,1.7c0.9,0,1.6-0.1,2.2-0.2v-4.4h-3.5v-2.7h6.6v9.1c-1.8,0.5-3.5,0.8-5.3,0.9c-2.7,0-4.9-0.7-6.5-2.1
			c-1.7-1.4-2.5-3.5-2.5-6.4c0.1-6,3.1-9,9-9.1c1.8,0,3.5,0.2,4.8,0.7L113.6,17.3z"/>
	</g>
	<g>
		<path class="st1" d="M118.3,14h9.7v2.7h-6.4v4.2h5.9v2.7h-5.9v4.8h6.5V31h-9.8V14z"/>
	</g>
	<g>
		<path class="st1" d="M131,22.5c0-2.6,0.7-4.7,2.1-6.3c1.4-1.6,3.4-2.4,6-2.4c2.6,0,4.6,0.8,6,2.4c1.4,1.6,2.1,3.7,2.1,6.3
			c0,2.6-0.7,4.7-2,6.3c-1.4,1.6-3.4,2.5-6,2.5c-2.6,0-4.6-0.9-6-2.5C131.7,27.2,131,25.1,131,22.5z M134.4,22.5
			c0,1.6,0.3,3,1.1,4.2c0.7,1.3,1.9,1.9,3.6,2c0.8,0,1.6-0.2,2.2-0.5c0.6-0.4,1.1-0.8,1.4-1.4c0.7-1.2,1-2.6,1-4.2
			c0-1.6-0.4-3-1.1-4.2c-0.7-1.2-1.9-1.9-3.5-1.9c-1.6,0-2.8,0.7-3.5,1.9C134.8,19.5,134.4,20.9,134.4,22.5z"/>
	</g>
	<g>
		<path class="st1" d="M150.7,14h5.7c0.5,0,1.1,0,1.8,0.1c0.6,0.1,1.2,0.3,1.7,0.6c0.5,0.3,1,0.7,1.3,1.3c0.3,0.6,0.5,1.3,0.5,2.3
			c0,1-0.3,1.8-0.9,2.5c-0.6,0.7-1.4,1.1-2.4,1.3v0c1.1,0.1,2.1,0.5,2.7,1.2c0.7,0.7,1,1.6,1,2.6c0,1.1-0.2,1.9-0.6,2.5
			c-0.4,0.6-0.9,1.1-1.5,1.5c-0.6,0.3-1.2,0.6-1.9,0.7c-0.7,0.1-1.3,0.2-1.8,0.2h-5.8V14z M153.9,20.9h1.3c0.8,0,1.5-0.1,2.1-0.4
			c0.3-0.1,0.6-0.4,0.7-0.6c0.2-0.3,0.3-0.6,0.3-1.1c0-0.5-0.1-0.9-0.3-1.2c-0.2-0.3-0.4-0.5-0.7-0.6c-0.3-0.1-0.7-0.2-1-0.3
			c-0.4,0-0.8,0-1.2,0h-1.3V20.9z M153.9,28.3h1.6c0.4,0,0.8,0,1.2-0.1c0.4-0.1,0.8-0.2,1.1-0.4c0.7-0.3,1.1-1,1.1-1.9
			c0-0.6-0.1-1-0.3-1.4c-0.2-0.3-0.5-0.6-0.8-0.7c-0.3-0.2-0.7-0.3-1.1-0.4c-0.4,0-0.8,0-1.2,0h-1.6V28.3z"/>
	</g>
</g>
<g>
	<g>
		<g>
			<path class="st0" d="M28.9,50.7c-11.8,0-21.5-9.6-21.5-21.5c0-11.8,9.6-21.5,21.5-21.5c11.8,0,21.5,9.6,21.5,21.5
				C50.4,41.1,40.8,50.7,28.9,50.7z M28.9,8C17.3,8,7.7,17.6,7.7,29.2c0,11.7,9.5,21.2,21.2,21.2c11.7,0,21.2-9.5,21.2-21.2
				C50.1,17.6,40.6,8,28.9,8z"/>
		</g>
	</g>
	<g>
		<g>
			<path class="st0" d="M29,45.6c-9,0-16.3-7.3-16.3-16.3C12.6,20.3,20,13,29,13c9,0,16.3,7.3,16.3,16.3C45.3,38.3,38,45.6,29,45.6z
				 M29,13.2c-8.8,0-16,7.2-16,16c0,8.8,7.2,16,16,16c8.8,0,16-7.2,16-16C45,20.4,37.8,13.2,29,13.2z"/>
		</g>
	</g>
	<g>
		<g>
			<path class="st0" d="M22.9,43.1c0.1-0.1,0.2-0.3,0.4-0.4c0.2-0.1,0.3-0.2,0.3-0.3c0.1-0.1,0.1-0.2,0.1-0.3c0-0.1,0-0.2-0.1-0.2
				c0-0.1-0.1-0.1-0.2-0.1c-0.1,0-0.2,0-0.2,0.1c0,0,0,0.1,0,0.2h-0.3c0-0.2,0-0.3,0.1-0.4c0.1-0.2,0.3-0.3,0.5-0.3
				c0.2,0,0.3,0.1,0.5,0.2c0.1,0.1,0.2,0.3,0.2,0.5c0,0.2,0,0.3-0.1,0.4c-0.1,0.1-0.1,0.2-0.3,0.3l-0.1,0.1
				c-0.1,0.1-0.2,0.1-0.2,0.2c0,0-0.1,0.1-0.1,0.1h0.8v0.3h-1.2C22.8,43.4,22.9,43.3,22.9,43.1"/>
		</g>
	</g>
	<g>
		<g>
			<path class="st0" d="M24.7,43.2c0.1,0.1,0.1,0.1,0.2,0.1c0.1,0,0.1,0,0.2-0.1c0-0.1,0.1-0.2,0.1-0.3c0-0.1,0-0.2-0.1-0.3
				c0-0.1-0.1-0.1-0.2-0.1c-0.1,0-0.1,0-0.2,0.1c-0.1,0.1-0.1,0.2-0.1,0.3C24.6,43,24.7,43.1,24.7,43.2 M25.1,42c0,0,0-0.1,0-0.1
				c0-0.1-0.1-0.1-0.2-0.1c-0.1,0-0.2,0.1-0.3,0.2c0,0.1,0,0.2-0.1,0.4c0-0.1,0.1-0.1,0.2-0.1c0.1,0,0.1,0,0.2,0
				c0.2,0,0.3,0.1,0.4,0.2c0.1,0.1,0.2,0.3,0.2,0.5c0,0.2,0,0.4-0.2,0.5c-0.1,0.1-0.3,0.2-0.5,0.2c-0.2,0-0.4-0.1-0.5-0.3
				c-0.1-0.2-0.1-0.4-0.1-0.6c0-0.2,0-0.3,0-0.4c0-0.2,0.1-0.3,0.1-0.4c0.1-0.1,0.1-0.2,0.2-0.2c0.1-0.1,0.2-0.1,0.3-0.1
				c0.2,0,0.3,0,0.4,0.1c0.1,0.1,0.2,0.2,0.2,0.4H25.1z"/>
		</g>
	</g>
	<g>
		<g>
			<rect x="25.7" y="42.6" class="st0" width="0.7" height="0.4"/>
		</g>
	</g>
	<g>
		<g>
			<rect x="26.7" y="41.5" class="st0" width="0.4" height="2"/>
		</g>
	</g>
	<g>
		<g>
			<rect x="27.4" y="41.5" class="st0" width="0.4" height="2"/>
		</g>
	</g>
	<g>
		<g>
			<rect x="28.2" y="41.5" class="st0" width="0.4" height="2"/>
		</g>
	</g>
	<g>
		<g>
			<rect x="28.8" y="42.6" class="st0" width="0.7" height="0.4"/>
		</g>
	</g>
	<g>
		<g>
			<path class="st0" d="M29.8,42.1v-0.3c0.1,0,0.2,0,0.2,0c0.1,0,0.1,0,0.2-0.1c0,0,0-0.1,0.1-0.1c0,0,0-0.1,0-0.1h0.3v2h-0.4v-1.4
				H29.8z"/>
		</g>
	</g>
	<g>
		<g>
			<path class="st0" d="M31.9,42.5c0.1-0.1,0.1-0.2,0.1-0.3c0-0.1,0-0.2-0.1-0.3c0-0.1-0.1-0.1-0.2-0.1c-0.1,0-0.1,0-0.2,0.1
				c-0.1,0.1-0.1,0.2-0.1,0.3c0,0.1,0,0.2,0.1,0.3c0,0.1,0.1,0.1,0.2,0.1C31.8,42.6,31.9,42.5,31.9,42.5 M31.3,41.7
				c0.1-0.1,0.3-0.2,0.4-0.2c0.3,0,0.5,0.1,0.6,0.4c0.1,0.2,0.1,0.4,0.1,0.6c0,0.2,0,0.4-0.1,0.6c-0.1,0.3-0.3,0.5-0.6,0.5
				c-0.1,0-0.3,0-0.4-0.1c-0.1-0.1-0.2-0.2-0.2-0.4h0.4c0,0.1,0,0.1,0.1,0.1c0,0,0.1,0.1,0.1,0.1c0.1,0,0.2-0.1,0.2-0.2
				c0-0.1,0-0.2,0-0.3c0,0-0.1,0.1-0.1,0.1c-0.1,0-0.1,0.1-0.2,0.1c-0.1,0-0.3-0.1-0.4-0.2c-0.1-0.1-0.2-0.3-0.2-0.5
				C31.1,42,31.2,41.9,31.3,41.7"/>
		</g>
	</g>
	<g>
		<g>
			<path class="st0" d="M32.7,43.1c0.1-0.1,0.2-0.3,0.4-0.4c0.2-0.1,0.3-0.2,0.3-0.3c0.1-0.1,0.1-0.2,0.1-0.3c0-0.1,0-0.2-0.1-0.2
				c0-0.1-0.1-0.1-0.2-0.1c-0.1,0-0.2,0-0.2,0.1c0,0,0,0.1,0,0.2h-0.3c0-0.2,0-0.3,0.1-0.4c0.1-0.2,0.3-0.3,0.5-0.3
				c0.2,0,0.3,0.1,0.5,0.2c0.1,0.1,0.2,0.3,0.2,0.5c0,0.2,0,0.3-0.1,0.4c-0.1,0.1-0.1,0.2-0.3,0.3l-0.1,0.1
				c-0.1,0.1-0.1,0.1-0.2,0.2c0,0-0.1,0.1-0.1,0.1h0.8v0.3h-1.2C32.6,43.4,32.6,43.3,32.7,43.1"/>
		</g>
	</g>
	<g>
		<g>
			<path class="st0" d="M35.3,41.9c-0.1,0.1-0.1,0.2-0.2,0.3c-0.1,0.2-0.2,0.3-0.2,0.5c0,0.1-0.1,0.3-0.1,0.5c0,0.2-0.1,0.3-0.1,0.4
				h-0.4c0-0.4,0.1-0.7,0.3-1.1c0.1-0.2,0.2-0.4,0.3-0.5H34l0-0.4h1.3V41.9z"/>
		</g>
	</g>
	<g>
		<g>
			<path class="st0" d="M39.5,38.2l0-1.4h-1.9v-0.2l2.3,0v-0.4l-2.8,0l0-0.2l3,0v0.8h-0.3l0,1.4L39.5,38.2z M39.1,37.9h-0.2v-0.8
				h-1.1v-0.2h1.3V37.9z"/>
		</g>
	</g>
	<g>
		<g>
			<path class="st0" d="M22.3,38.4c-0.2,0-0.8,0-1-0.6l0.2-0.1c0.2,0.5,0.8,0.5,0.9,0.5c0.6-0.2,0.5-0.7,0.5-0.7l0.2,0
				C23,37.5,23.1,38.2,22.3,38.4L22.3,38.4C22.3,38.4,22.3,38.4,22.3,38.4z"/>
		</g>
	</g>
	<g>
		<g>
			<path class="st0" d="M28.6,39.5c-0.1,0-0.1,0-0.1,0c-0.7-0.2-1.1-0.1-1.1-0.1l0,0c-1.1,0-1.4-0.2-1.6-0.3c0,0,0,0-0.1,0
				c-0.2-0.1,0-0.4,0.1-0.6c0,0,0.1-0.1,0.1-0.1c0,0,0-0.1,0-0.1c0.1-0.2,0.1-0.4,0.2-0.5c0,0,0-0.1,0-0.1c-0.3,0-0.5-0.1-0.5-0.1
				c0,0,0,0,0,0c0,0,0,0,0,0.2l0,0c0,0,0,0,0,0c0.1,0.1,0.2,0.5-0.2,1c-0.2,0.2-0.4,0.3-0.6,0.3c-0.4,0-0.8-0.2-1-0.4
				c-0.3-0.2-0.1-0.8,0-1c0-0.1,0-0.1,0-0.2c0,0,0,0-0.1,0c-0.2,0-0.5-0.1-0.6-0.2l0.1-0.2c0.2,0.1,0.4,0.2,0.4,0.2
				c0.1,0,0.2,0,0.2,0.1c0,0,0.1,0.2,0,0.3c-0.1,0.2-0.2,0.7,0,0.8c0.1,0.1,0.5,0.3,0.9,0.3c0.2,0,0.3-0.1,0.5-0.2
				c0.4-0.4,0.2-0.7,0.2-0.8c0,0,0,0,0-0.1l0,0c0-0.1-0.1-0.2,0-0.3c0,0,0.1-0.1,0.2-0.1l0,0c0,0,0.3,0.1,0.6,0.1l0.1,0l0,0.1
				c0,0.1,0,0.2-0.1,0.3c-0.1,0.1-0.1,0.3-0.2,0.4c0,0.1,0,0.1-0.1,0.2c0,0,0,0.1-0.1,0.1c0,0.1-0.2,0.3-0.2,0.3c0,0,0,0,0.1,0
				c0.2,0.1,0.4,0.3,1.5,0.3c0.1,0,0.5-0.1,1.2,0.1c0,0,0,0,0.1,0c0.1,0,0.3,0,0.6-0.1c0.4-0.1,0.6-0.1,0.8,0c0.1,0,0.2,0,0.4,0
				c0.1,0,0.2,0,0.4-0.1c0.2-0.1,0.5-0.2,1.4,0l0,0c0,0,0.3,0.1,0.7,0c0.4-0.1,0.5,0,0.6,0c0.1,0,0.1,0,0.2,0c0.3,0,0.4,0,0.5-0.1
				c0,0,0,0,0,0c0.2-0.1,0.8,0.1,0.9,0.1c0.3,0.1,0.6-0.1,0.8-0.1c0,0,0.1,0,0.1,0c0.2-0.1,0.6-0.1,0.8,0c0.1,0,0.6-0.1,0.8-0.7l0,0
				l0,0c0.3-0.1,0.8-0.3,0.9-0.5c0,0,0-0.1-0.2-0.1l-0.2,0l0.1-0.1c0,0-0.1-0.1-0.4-0.3l0,0l0,0c0,0-0.1-0.3-0.5-0.5l-0.1,0l0-0.1
				l0,0c0,0,0-0.2-0.3-0.4l0,0c-0.4-0.4-0.4-0.5-0.4-0.5l0,0l0,0l0,0c0,0,0.2-0.2-0.1-0.6l-0.4-0.6l0.1,0c0,0,0,0,0-0.1
				c0-0.1,0.1-0.2,0.1-0.2c0.1,0,0.1-0.1,0.1-0.3l0,0l0,0c0,0,0.1-0.5,0-0.9l0-0.1l0.1,0c0,0,0.2-0.1,0.3-0.1c0.1,0,0.1,0,0.1-0.1
				c0-0.1,0-0.3-0.2-0.8c-0.3-0.9-0.6-2.6-0.6-2.8l-0.2-1c0,0,0-0.5-0.5-0.7c0,0,0,0.1-0.1,0.1c-0.1,0.2-0.1,0.5-0.1,0.7
				c0,0,0,0,0,0.1c0,0.1,0.1,0.5-0.1,0.9c-0.1,0.3-0.3,0.6-0.6,0.8c-0.8,0.5-1.1,0.5-1.6,0.3l0,0l-1.4-0.4c0,0.2,0,0.8-0.1,1.3
				c-0.1,0.3-0.2,0.5-0.2,0.7c-0.1,0.3-0.1,0.4-0.2,0.6c0,0-0.1,1.1-1.3,2.1l0,0c0,0-0.8,0.4-1.3,0.5c-0.8,0.3-0.8,0.3-1,0.4l0,0
				c-0.4,0.2-1,0.2-1.4,0c-0.3-0.1-0.4-0.2-0.5-0.2c-0.1,0-0.3-0.1-0.5-0.2l0.1-0.2c0.2,0.1,0.3,0.1,0.5,0.2c0.2,0,0.3,0.1,0.6,0.3
				c0.3,0.2,0.9,0.2,1.4-0.1l0,0c0.1,0,0.3-0.1,0.8-0.4l0,0c0.5-0.1,1.2-0.5,1.3-0.5c0.9-0.8,1.2-1.7,1.2-1.9c0-0.2,0.1-0.3,0.2-0.6
				c0.1-0.2,0.1-0.4,0.2-0.7c0.2-0.7,0.1-1.2,0.1-1.4v0c0,0-0.2-0.7-1.2-1.4c-1-0.7-1.6-1.6-1.8-2c-0.1,0-0.1,0.1-0.3,0.1
				c-0.2,0-0.3,0-0.4,0c0,0,0,0,0,0c0,0-0.1,0-0.1,0c0,0.1,0,0.2,0,0.3c0,0,0,0.1,0,0.1c0.1,0.2,0.2,0.6,0.2,1v0l0,0
				c0,0.1,0.1,0.3,0.7,0.6c0.5,0.3,0.5,0.3,0.6,0.3c0.1,0,0.1,0,0.4,0.1c0.5,0.2,0.8,0.4,0.9,0.6l-0.1,0.2c-0.3-0.1-0.6-0.1-0.6-0.1
				l0,0l0,0c-0.2,0-0.3-0.1-0.4-0.1l0,0l-0.1,0c-0.1,0-0.2-0.1-0.4,0c-0.1,0-0.2,0.3-0.4,0.5c-0.2,0.3-0.4,0.6-0.7,0.8
				c-0.4,0.4-0.7,0.6-1.6,0.7c-0.8,0.1-1.8,0.2-2.8-0.6c0,0-0.3-0.3-0.4-0.8c-0.1-0.2,0-0.4,0-0.5c0-0.1,0-0.6,0.3-1.1
				c0.3-0.4,0.2-0.6,0.2-0.6c0,0,0-0.1,0-0.1c0,0,0-0.1,0-0.2c0-0.3,0-0.5,0.1-0.6c-0.1-0.1-0.2-0.2-0.2-0.4
				c-0.1-0.1-0.1-0.2-0.2-0.2c-0.2-0.1-0.8-0.4-0.9-1.6c0-0.1-0.2-0.8-0.1-1.3c0-0.1,0-0.1,0.1-0.2c0.1-0.5,0.3-1.3,1.3-1.6
				c0-0.1,0.1-0.1,0.1-0.2c-0.5,0.2-1.3,0.6-1.7,1.4l0,0c0,0-0.5,0.5-0.9,2.5c0,0-0.2,0.6-0.1,1.1c0.1,0.7,0.2,1.3,0.2,1.3
				c0,0,0.1,0.7,0.1,1.1c0,0,0,1.3,0.2,2.2l-0.2,0c-0.2-0.9-0.2-2.2-0.2-2.2c0-0.4-0.1-1.1-0.1-1.1c0,0-0.1-0.6-0.2-1.3
				c-0.1-0.6,0.1-1.2,0.1-1.2c0.4-1.9,0.8-2.5,0.9-2.6c0.6-1,1.7-1.4,2.1-1.6v0l0.1,0c0,0,0,0,0.1,0l0.2-0.1l0,0
				c0.1,0,0.2-0.1,0.2-0.1c0,0,0-0.1,0-0.1c-0.1,0-0.2,0-0.3,0c-0.4,0.1-0.7,0.1-0.8-0.1c-0.1-0.1-0.3-0.4-0.2-0.5
				c0,0,0.1-0.1,0-0.2c-0.1-0.1,0-0.3,0-0.4c0,0,0-0.1,0.1-0.2c0.1-0.1,0.1-0.1,0.1-0.2c0-0.1,0-0.2,0.1-0.3c0,0,0,0,0,0l0,0l0,0
				c0,0,0.1-0.2,0.2-0.3c0-0.2,0.1-0.7,0.5-0.9c0-0.1,0.2-0.5,0.6-0.5c0.1-0.1,0.3-0.2,0.4-0.2c0.1-0.1,0.2-0.2,0.4-0.2
				c0.1,0,0.1,0,0.1,0c0.1-0.1,0.2-0.2,0.4-0.2c0,0,0.1,0,0.2,0.1c0.1-0.1,0.2-0.2,0.4-0.2c0.1,0,0.1,0,0.1,0
				c0.1-0.1,0.3-0.2,0.4-0.1c0,0,0.1,0,0.1,0.1c0.1,0,0.3,0,0.4,0.1c0,0.1,0.1,0.2,0.1,0.3c-0.1,0.2-0.1,0.3-0.2,0.3
				c0,0-0.1,0-0.1,0.1c0.1,0.1,0.1,0.1,0.1,0.2c0,0.2,0,0.3-0.1,0.4c-0.1,0.5-0.1,0.6-0.1,0.7c0,0.1,0.1,0.4,0.2,0.5l0,0
				c0.1,0.2,0.2,0.4,0.1,0.5c0,0.1-0.1,0.1-0.1,0.1c-0.1,0-0.1,0-0.1,0c0,0,0,0,0,0c0,0.1,0,0.2,0,0.3c0,0,0,0,0,0c0,0,0,0,0,0
				c0,0,0,0.1-0.1,0.1c0,0,0,0,0,0.1c0,0.1,0,0.2,0,0.3c-0.1,0.1-0.2,0.2-0.3,0.2c-0.1,0-0.2,0-0.2,0c0.2,0.1,0.5,0.2,0.9,0.4
				c0.4,0.3,0.5,0.4,0.6,0.5c0.1,0.1,0.1,0.1,0.2,0.2c0.3,0.2,0.8,0.5,0.9,0.5c0.1,0,0.1,0.1,0.2,0.1l0.6-1.8l0.6,0.2
				c0.1-0.1,0.4-0.3,0.8-0.4l-0.1-0.6c-0.1,0-0.4,0-0.4,0c0,0,0,0,0,0c-0.1,0-0.2,0-0.2-0.2c0-0.1,0.1-0.2,0.3-0.2
				c0,0-0.1-0.1-0.1-0.1c0,0,0-0.1,0-0.1c0.1-0.1,0.2-0.1,0.3-0.1l0,0l0,0c0-0.1,0-0.1,0.1-0.1c0.1-0.1,0.2,0,0.3,0.1l0,0l0.1,0.2
				c0,0,0,0,0,0c0,0,0-0.1,0-0.1c0-0.1,0.1-0.1,0.2-0.1c0,0,0,0,0,0c-0.1,0-0.1-0.1-0.1-0.2c0,0,0-0.1,0.1-0.1c0,0,0.1-0.1,0.1-0.1
				c0.1,0,0.2,0.1,0.2,0.1l0.1,0.1c0-0.1,0.1-0.2,0.1-0.2l0,0l0,0c0.2,0,0.2,0.1,0.3,0.2l0.1,0.4c0.1,0,0.2,0,0.2,0.1
				c0,0,0,0.1,0,0.1l0.6,0.5l0,0c0.1,0.1,0.2,0.1,0.3,0.2c0.1-0.1,0.2-0.1,0.3,0l0,0l0,0c0,0,0,0.1,0.1,0.1c0.1,0,0.2,0,0.2,0
				c0.1,0,0.1,0.1,0.1,0.1c0.1,0,0.2,0,0.3,0.1c0.1,0.1,0.1,0.2,0.1,0.2c0.3,0.1,0.4,0.4,0.3,0.6l0,0c0.1,0.1,0.3,0.4,0.5,0.8l0,0
				l0.8,0.7c0,0,0,0,0,0c0,0,0.1,0,0.2,0.1c0,0,0.1,0.1,0.1,0.1c0,0,0,0,0,0l0.3,0.1c0.1,0,0.2,0.1,0.2,0.2c0,0.1-0.1,0.1-0.2,0.1
				l0,0l-0.2-0.1l0.2,0.2l0,0c0,0.1,0,0.2-0.1,0.2c-0.1,0-0.2,0-0.3-0.1c0,0-0.1-0.2-0.2-0.3c-0.1,0-0.2,0-0.2,0c0,0,0-0.1,0-0.1
				l-0.2-0.2c0,0.2,0,0.4,0,0.5c0,0.3,0,0.5,0.2,1c0,0.1,0.2,0.5,0.2,0.6c-0.1,0.3-0.3,0.5-0.7,0.6l0,0.2c0,0.1,0,0.9-0.2,1.3
				c0,0,0,0,0,0c0.6,0.3,0.6,0.9,0.6,0.9l0.2,1c0,0.1,0.3,1.9,0.6,2.7c0.2,0.5,0.2,0.8,0.1,0.9c-0.1,0.1-0.2,0.1-0.3,0.2
				c-0.1,0-0.2,0-0.2,0.1c0.1,0.4,0,0.8,0,0.9c0.1,0.3,0,0.4-0.1,0.5c0,0,0,0,0,0.1c0,0.1,0,0.2-0.1,0.2l0.3,0.4c0,0,0,0.1,0,0.1
				l0,0c0,0,0.6,0.2,0.9,0.5c0.3,0.2,0.4,0.2,0.4,0.2c0.1,0,0.4,0,0.6,0.1c0,0.1,0.1,0.1,0,0.2c-0.1,0.2-0.4,0.3-0.7,0.1
				c-0.1,0-0.1,0-0.1,0c-0.1,0-0.2,0.1-0.6,0.1c0.2,0.2,0.2,0.3,0.2,0.4c0.3,0.2,0.4,0.5,0.5,0.5c0.4,0.2,0.5,0.4,0.5,0.5
				c0.2,0.1,0.2,0.2,0.2,0.3l0,0c-0.1,0.3-0.8,0.6-0.9,0.7c-0.2,0.6-0.8,0.8-1,0.8c-0.1,0-0.5,0-0.7,0c0,0,0,0-0.1,0
				c-0.2,0.1-0.5,0.2-0.9,0.1c-0.4-0.1-0.7-0.2-0.8-0.1l0,0c-0.1,0-0.2,0.1-0.6,0.1c-0.1,0-0.2,0-0.3-0.1c-0.1,0-0.2-0.1-0.5,0
				c-0.4,0.1-0.8,0-0.8,0c-0.8-0.1-1,0-1.3,0c-0.1,0-0.2,0.1-0.4,0.1c-0.2,0-0.3,0-0.4,0c-0.2,0-0.4-0.1-0.7,0
				C28.9,39.5,28.7,39.5,28.6,39.5z M37.8,35.9c0,0,0.1,0,0.2,0c0.3,0.1,0.5,0,0.5,0c0-0.1-0.2-0.1-0.4-0.1c0,0-0.2,0-0.5-0.2
				c-0.2-0.2-0.6-0.3-0.7-0.4c0.1,0.2,0,0.4,0,0.5c0,0.1,0.1,0.2,0.2,0.3C37.5,36,37.7,35.9,37.8,35.9
				C37.8,35.9,37.8,35.9,37.8,35.9z M23.3,29.9c0.1,0.4,0.3,0.7,0.3,0.7c0.9,0.7,1.9,0.7,2.7,0.6c0.9-0.1,1.1-0.3,1.5-0.7
				c0.2-0.2,0.4-0.5,0.6-0.8c0.1-0.2,0.2-0.3,0.3-0.4c0,0,0,0,0,0c-0.7-0.1-1-0.5-1-1.2c0,0,0.1-0.8-0.2-1.3l-0.1-0.2l0.2,0.1
				c0,0,0,0,0,0c0,0,0-0.1,0-0.3c-0.2-0.1-1.1-0.5-2.3-1.2c-0.2,0.4-0.7,0.9-1.4,0.7c-0.3-0.1-0.6-0.4-0.7-0.8
				C23,24.5,23,24.1,23,24h0c0-0.1,0-0.4-0.1-0.6c-0.1-0.1-0.1-0.4,0-0.8c0.1-0.3,0.4-0.6,0.9-0.8l0,0c0,0-0.1-0.1-0.1-0.1
				c0,0,0-0.1-0.1-0.1c-0.8,0.3-1,0.9-1.1,1.4c0,0.1,0,0.2-0.1,0.2c-0.1,0.5,0.1,1.2,0.1,1.2l0,0c0.1,1.2,0.8,1.4,0.8,1.4l0.1,0
				l0,0.1c0,0,0.1,0.1,0.2,0.2l0,0l0,0.1c0,0.1,0.1,0.2,0.2,0.3l0.1,0.1L24,26.8c-0.1,0.1-0.1,0.5-0.1,0.6c0,0.1,0,0.2,0,0.2
				c0,0,0,0,0,0c0,0.1,0,0.3-0.3,0.7c-0.3,0.4-0.3,0.8-0.3,1l0,0c0,0,0,0,0,0l0,0C23.3,29.6,23.3,29.7,23.3,29.9
				C23.3,29.8,23.3,29.8,23.3,29.9L23.3,29.9z M33.4,30.1c0.3,0.1,0.6,0,1.1-0.4c0.1-0.1,0.2-0.1,0.2-0.2l0,0
				c0.3-0.3,0.4-0.6,0.4-0.9c-0.1,0.2-0.4,0.6-0.8,1c-0.3,0.2-0.5,0.4-0.8,0.4C33.5,30.1,33.5,30.1,33.4,30.1z M31.6,29.6L33,30
				l1.8-5.5l0,0l0.1-0.2l0.6-2l-0.5-0.2l0-0.1c0-0.2,0-0.4-0.1-0.5c0,0,0,0-0.1,0.1c-0.1,0.1-0.2,0.1-0.2,0.1c0,0-0.1,0-0.1-0.1
				c-0.1,0-0.1,0.1-0.2,0.1c-0.1,0-0.1-0.1-0.2-0.1c0,0-0.1,0-0.1,0c-0.1,0-0.1-0.2-0.1-0.2l0,0v-0.1c0,0,0,0,0,0c0,0,0,0,0,0
				c0,0,0,0-0.1,0c-0.1-0.1-0.1-0.1-0.1-0.2l0-0.1l0,0c-0.2,0-0.4,0.1-0.5,0.2L33,21.3l0-0.1c0,0-0.2-0.5-0.8-0.6
				c-0.6-0.2-1.2,0.4-1.2,0.4l0,0l-0.5-0.2l-1,3.1c0,0,0,0,0.1,0c0.7-0.3,0.9-0.6,1.1-0.7c0,0,0,0,0,0l0,0c0,0,0,0,0,0c0,0,0,0,0,0
				c0.1-0.1,0.1-0.2,0.1-0.3c0-0.1,0-0.2,0-0.3c0-0.2,0.2-0.4,0.2-0.5l-0.2-0.2c-0.1,0-0.1-0.1-0.1-0.3c0-0.1,0.2-0.2,0.3-0.2l0,0
				l0.5,0.3c0,0,0.1,0,0.1,0l0,0c0,0,0,0,0,0c0.1,0,0.2-0.2,0.4-0.1c0,0,0.1,0.1,0.1,0.1c0,0,0,0,0,0c0.1,0,0.1,0,0.1,0.1
				c0,0,0,0.1,0,0.1c0,0,0.1,0,0.1,0.1c0.1,0.1,0.1,0.2,0.1,0.2l0,0c0,0,0,0,0.1,0c0.1,0.1,0.1,0.1,0.1,0.2c0,0.1,0,0.1,0,0.1
				l-0.1-0.1l0.1,0.1c0,0-0.2,0.4-0.4,0.6c-0.1,0.2-0.3,0.4-0.4,0.5l0,0c0,0,0,0,0,0c0,0,0,0,0,0v0c-0.1,0.1-0.3,0.2-0.3,0.2
				c-1.1,1.1-1.7,1.6-2.3,2L28.9,26c-0.1,0.1-0.2,0.1-0.2,0.2c0.2,0.5,0.8,1.3,1.7,2C31.3,28.8,31.6,29.4,31.6,29.6z M33.5,28.8
				l-0.3,1c0.2,0,0.7-0.2,0.8-0.4c0.1-0.1,0.1-0.1,0-0.2c0-0.1-0.1-0.3-0.1-0.7c0,0,0,0,0,0C33.8,28.6,33.6,28.8,33.5,28.8
				L33.5,28.8z M34.2,29.2c0,0.1,0,0.2,0,0.3c0.1-0.1,0.1-0.1,0.2-0.2c0,0,0,0,0.1-0.1C34.4,29.2,34.4,29.3,34.2,29.2L34.2,29.2
				L34.2,29.2z M29.8,29.2c0,0,0.1,0,0.3,0c-0.1-0.1-0.3-0.2-0.5-0.3c-0.2-0.1-0.3-0.1-0.3-0.1c-0.1,0-0.1,0-0.7-0.3
				c-0.3-0.2-0.5-0.3-0.6-0.5c-0.1,0.7,0.4,0.9,0.8,1c0,0,0.1,0,0.1,0c0,0,0.1,0,0.1,0.1c0.2,0,0.3,0,0.4,0
				C29.4,29.1,29.6,29.1,29.8,29.2C29.8,29.2,29.8,29.2,29.8,29.2z M34.4,28.2c0,0.3,0,0.6,0,0.8c0.1-0.1,0.4-0.4,0.5-0.6
				c0-0.1,0.1-0.2,0.1-0.4C34.7,28.1,34.5,28.2,34.4,28.2z M34,27.2l-0.4,1.2c0.1-0.1,0.2-0.2,0.3-0.3c0-0.1,0-0.3,0.1-0.5
				c0-0.2,0.1-0.3,0.1-0.4c0,0,0,0,0-0.1C34.2,27.2,34.1,27.2,34,27.2z M34.5,27.6c0,0.1-0.1,0.2-0.1,0.4c0.1-0.1,0.4-0.1,0.6-0.1
				c0,0,0-0.1,0-0.1c0-0.2,0-0.4,0.1-0.5c-0.1,0-0.2,0-0.3,0c0,0-0.1,0.1-0.1,0.1c0,0,0,0,0,0C34.6,27.4,34.5,27.5,34.5,27.6z
				 M34.4,27.4c0,0.1-0.1,0.1-0.1,0.2c0,0,0,0,0,0c0.1-0.1,0.1-0.3,0.2-0.3c0,0,0-0.1,0.1-0.1c0,0,0,0.1-0.1,0.1
				C34.5,27.2,34.4,27.3,34.4,27.4z M35.2,27.3C35.2,27.4,35.2,27.4,35.2,27.3C35.2,27.4,35.2,27.4,35.2,27.3
				C35.2,27.3,35.2,27.3,35.2,27.3z M34.6,25.4L34.1,27c0.1,0,0.2,0,0.3,0c0,0,0-0.1,0.1-0.1c0.2-0.3,0.3-0.7,0.3-0.7
				c0.1-0.3,0.1-0.7,0.1-0.8C34.8,25.4,34.7,25.4,34.6,25.4z M34.9,27c0.1,0,0.2,0,0.3,0c0.1-0.2,0.2-0.5,0.2-0.5
				c0.1-0.3,0.1-0.8,0.1-1c0,0-0.1,0-0.1,0c0,0,0,0,0,0c0,0.3-0.1,0.6-0.1,0.8C35.1,26.5,35,26.8,34.9,27C34.8,27,34.9,27,34.9,27z
				 M35.5,26.6C35.5,26.6,35.5,26.6,35.5,26.6c0,0,0,0.1-0.1,0.3C35.5,26.8,35.5,26.7,35.5,26.6z M35,26.3
				C35,26.3,34.9,26.3,35,26.3c0,0.1-0.1,0.3-0.2,0.5C34.8,26.6,34.9,26.4,35,26.3C35,26.3,35,26.3,35,26.3z M27.9,26.1
				c0.1,0,0.2,0,0.3,0c0.1,0,0.3-0.1,0.6-0.3l0.2-0.1c0.6-0.4,1.2-0.9,2.3-2c0,0,0.2-0.2,0.4-0.3c0.1-0.1,0.3-0.2,0.4-0.4
				c0.3-0.5,0.4-0.7,0.4-0.7c0,0,0,0,0,0l0,0c0,0-0.1,0-0.1,0.1c0,0,0,0,0,0l-0.1,0.1l-0.1-0.1c-0.1-0.1,0-0.1,0.1-0.3c0,0,0,0,0,0
				c0,0,0,0-0.1,0c-0.1,0.1-0.1,0.1-0.1,0.2L32,22.1l0.1,0.1c0,0,0,0,0,0l0,0l0,0c-0.1,0.1-0.1,0.1-0.1,0l-0.1-0.1l0.1-0.1l0,0
				c0,0,0.1-0.1,0.2-0.2l0,0c0,0,0,0,0,0c0,0-0.1,0-0.1,0.1c0,0-0.1,0.1-0.1,0.1l-0.1-0.1c0,0,0,0,0.1-0.1c0,0,0.1-0.1,0.1-0.1
				c0,0-0.1,0-0.2,0.1c0,0,0,0,0,0c0,0,0,0-0.1,0c-0.2,0.1-0.3,0.1-0.3,0.2l0,0.1l-0.1,0c0,0-0.2,0.1-0.2,0.4l0,0.1
				c0,0.4-0.1,0.6-0.2,0.7c0,0,0,0,0,0c0,0,0,0,0,0c0,0,0,0,0,0c-0.1,0.1-0.4,0.4-1.1,0.7c-0.8,0.4-1.2,0.7-1.3,0.7
				c-0.1,0.1-0.3,0.2-0.8-0.1c-0.4-0.3-1.3-0.8-1.9-1.1l0,0l-0.2-0.1l0-0.1c-0.1-0.8-0.8-1.1-1-1.2l-0.4,0c-0.5,0.2-0.7,0.5-0.8,0.7
				c-0.1,0.3-0.1,0.5,0,0.6c0.1,0.1,0.2,0.6,0.1,0.7h0c0,0-0.1,1.2,0.7,1.5c0.6,0.2,1-0.3,1.1-0.6c0-0.1,0-0.1,0-0.1c0,0,0,0,0,0
				l0-0.1l0.1,0.1c0,0,0,0,0,0c0,0,0.1,0,0.1,0c0,0,1.5,0.9,2.3,1.2l0.1,0l0,0C27.8,26.1,27.8,26.1,27.9,26.1
				C27.9,26.1,27.9,26.1,27.9,26.1L27.9,26.1z M34.7,25.2c0.2,0.1,0.5,0.2,0.6,0.2c0.6,0,1-0.1,1-0.4v0c-0.1,0.1-0.3,0.2-0.3,0.2
				c-0.5,0.1-0.8-0.1-0.8-0.1l-0.1,0l0.2-1.2l-0.1,0.4l0,0l0,0.1l-0.2,0.7L34.8,25L34.7,25.2z M35.3,24.9c0.1,0,0.3,0.1,0.6,0
				c0.1,0,0.2,0,0.2-0.1c0,0,0,0,0,0c-0.1,0-0.5-0.2-0.7-0.2L35.3,24.9z M34.8,24.8l0.1,0l0.1-0.3l-0.1,0L34.8,24.8z M36.2,24.7
				C36.3,24.7,36.3,24.7,36.2,24.7c0-0.1,0-0.2-0.1-0.3c0-0.2-0.1-0.3-0.1-0.4C36.1,24.3,36.2,24.5,36.2,24.7
				C36.2,24.6,36.2,24.6,36.2,24.7z M25.7,23.3c0.6,0.3,1.5,0.8,1.9,1.1c0.4,0.3,0.5,0.1,0.5,0.1l0,0c0,0,0.1,0,0.2-0.1l0,0
				c0,0,0.2-0.2,0.2-0.5c0-0.3-0.1-0.5-0.4-0.8c0,0-0.5-0.5-0.7-0.9c-0.1-0.3-0.3-0.7-0.4-1l0,0c0,0,0,0,0,0c0,0-0.1,0.1-0.2,0.1
				c0,0.1,0.1,0.2,0.1,0.3c0.1,0.2,0.1,0.4,0.2,0.6c0,0,0,0.1,0,0.1c0,0.1,0,0.1,0,0.2c0,0.1-0.1,0.2-0.2,0.2
				c-0.1,0.1-0.2,0.1-0.3,0.1c-0.1,0-0.3,0-0.4-0.1c-0.4-0.3-0.7-0.5-0.8-0.7c-0.2-0.2-0.3-0.2-0.3-0.3c-0.1,0-0.2-0.1-0.3-0.1
				c0,0.1-0.1,0.2-0.2,0.3c0.1,0,0.3,0.1,0.4,0.2l0,0C25.6,22.6,25.6,23,25.7,23.3L25.7,23.3z M35.4,24.3c0.2,0,0.4,0.1,0.5,0.1
				c-0.1-0.2-0.1-0.5-0.1-0.9c0,0,0-0.4-0.1-0.8L35.4,24.3z M27.2,21.2c0.1,0.3,0.3,0.6,0.4,0.9c0.1,0.4,0.6,0.8,0.6,0.9
				c0.3,0.3,0.5,0.6,0.5,0.9c0,0.1,0,0.3-0.1,0.4c0.1-0.1,0.3-0.2,0.5-0.3l0.3-0.9c-0.3-0.3-0.4-0.4-0.6-0.5c-0.1,0-0.1-0.1-0.1-0.1
				c0,0-0.1,0-0.1-0.1c-0.1-0.1-0.3-0.2-0.8-0.7C27.6,21.5,27.4,21.3,27.2,21.2z M35,24.2L35,24.2l0.2-0.6L35,24.2z M36.8,22.8
				L36.5,23L36.8,22.8C36.8,22.8,36.8,22.8,36.8,22.8L36.8,22.8z M27,20.8c0.1,0.1,0.5,0.3,1,0.8c0.4,0.5,0.6,0.6,0.7,0.7
				c0,0,0.1,0,0.1,0.1c0,0,0.1,0.1,0.1,0.1c0.1,0.1,0.3,0.2,0.5,0.4l0.1-0.5c-0.1-0.1-0.2-0.1-0.2-0.1c-0.1-0.1-0.6-0.3-0.9-0.5
				c-0.1-0.1-0.2-0.1-0.2-0.2c-0.1-0.1-0.2-0.2-0.6-0.5c-0.5-0.3-0.8-0.4-1-0.4l0,0.1c0,0,0.1,0,0.1,0l0,0l0,0c0,0,0.1,0,0.1,0
				C26.9,20.7,26.9,20.8,27,20.8L27,20.8L27,20.8z M25,21.5C25,21.5,25.1,21.5,25,21.5c0.2,0.1,0.5,0.4,0.8,0.6
				c0.1,0.1,0.2,0.1,0.2,0.2c0.2,0.1,0.3,0.2,0.5,0.2c0.1,0,0.1,0,0.2-0.1c0,0,0.1-0.1,0.1-0.1c0-0.1,0-0.1,0-0.2
				c0-0.1-0.1-0.3-0.2-0.5c0-0.1-0.1-0.1-0.1-0.2l0,0c0,0,0-0.1-0.1-0.3c0,0,0-0.1-0.1-0.1c0,0,0-0.1,0-0.1c0-0.1,0-0.2,0-0.3l0-0.1
				l0,0c0-0.2,0.2-0.2,0.4-0.2c0.1,0,0.2,0,0.3,0c0.1,0,0.1,0,0.2-0.1c0-0.1,0-0.1,0-0.1c0,0,0-0.1,0-0.2c0-0.1,0-0.1,0.1-0.1
				c0,0,0,0,0,0l-0.2-0.2h0.3c0,0,0,0,0,0c0,0,0-0.1,0-0.1c0,0,0-0.1,0-0.1c0-0.1,0.1-0.1,0.2-0.1c0,0,0,0,0.1,0c0,0,0-0.1-0.1-0.3
				l0,0c0,0-0.3-0.5-0.2-0.6c0,0,0-0.3,0.1-0.5c-0.1,0-0.1,0-0.2,0c0,0-0.1,0-0.1,0C27.1,18,26.9,18,26.7,18l0,0
				c0,0.2-0.3,0.4-0.5,0.4c0,0.3-0.5,0.5-0.8,0.6c-0.1,0-0.2,0.1-0.2,0.1c0,0.1,0.1,0.2,0.1,0.2l0,0v0c0,0.7-0.3,1.1-0.5,1.2
				c0,0.1,0,0.2-0.1,0.3c-0.1,0.1-0.3,0.2-0.5,0.2l0,0c0.1,0,0.2,0.1,0.3,0.2C24.7,21.4,24.8,21.4,25,21.5C25,21.5,25,21.5,25,21.5z
				 M30.9,21.5c0,0-0.1,0-0.1,0c0,0,0,0.1,0,0.1l0.4,0.2l0,0c0,0,0.1-0.1,0.1-0.1L30.9,21.5z M24,21.6c0,0.1,0.2,0.1,0.3,0.1
				c0.1,0,0.2-0.1,0.2-0.1c0,0,0-0.1,0-0.1l0,0c0-0.1-0.1-0.1-0.3-0.1C24,21.4,24,21.6,24,21.6L24,21.6C24,21.6,24,21.6,24,21.6
				L24,21.6z M35.6,21.6L35.6,21.6c-0.1-0.3-0.3-0.4-0.4-0.4C35.3,21.3,35.5,21.4,35.6,21.6z M34.3,21.2c0,0,0,0.1,0,0.1l0,0
				c0,0,0,0.1,0,0.1c0,0,0,0,0,0c0,0,0,0,0,0l0,0l0.1-0.2c0.1-0.2,0.2-0.4,0.4-0.7l0,0c0,0,0-0.1-0.1-0.1c0,0-0.1,0-0.2,0
				c0,0,0,0,0,0l0,0l0,0c0,0,0,0,0,0C34.6,20.6,34.5,20.8,34.3,21.2C34.4,21.1,34.4,21.2,34.3,21.2z M35.1,20.7
				c-0.1,0.1-0.4,0.4-0.5,0.8c0,0,0,0,0.1,0c0,0,0.1-0.1,0.2-0.2c0,0,0-0.1,0.1-0.2l0,0l0,0c0,0,0-0.1,0.1-0.1l0,0
				c0,0,0.1,0,0.1-0.1l0,0l0,0c0,0,0.1,0,0.1,0l0,0C35.2,20.8,35.2,20.8,35.1,20.7z M34.1,21.1c0,0,0,0.1,0,0.1c0,0.1,0,0.1,0,0.1
				c0,0,0,0,0,0l0,0c0,0,0-0.1,0.1-0.2c0,0,0-0.1,0-0.1c0,0,0-0.1,0-0.1c0,0,0.1-0.3,0.3-0.5c0,0,0,0,0-0.1l0,0c0,0,0-0.1,0-0.1
				c0,0-0.1,0-0.1,0c0,0,0,0,0,0c0,0.1,0,0.1-0.1,0.1c0,0-0.1,0.1-0.1,0.1c0,0.1-0.1,0.2-0.1,0.3C34.1,21,34.1,21,34.1,21.1z
				 M34.1,20.2c0,0-0.2,0.3-0.2,0.7c0,0.1,0,0.2,0,0.2c0,0,0,0,0,0l0,0c0,0,0,0,0-0.1c0-0.1,0-0.1,0-0.2c0,0,0,0,0,0
				c0,0,0-0.2,0.1-0.3c0.1-0.1,0.1-0.2,0.2-0.3c0,0,0-0.1,0-0.1C34.2,20.2,34.1,20.2,34.1,20.2z M32.5,20.5c0.3,0.2,0.5,0.4,0.5,0.5
				c0.1,0,0.2-0.1,0.3-0.1l-0.9-0.7C32.5,20.3,32.5,20.4,32.5,20.5z M26.7,21C26.8,21,26.8,21,26.7,21c0.1,0,0.1,0,0.1-0.1l0,0
				C26.8,20.9,26.8,20.9,26.7,21C26.8,20.9,26.7,20.9,26.7,21C26.7,21,26.7,21,26.7,21z M23.5,20.2c0,0,0,0.2,0.1,0.3l0,0
				c0.2,0.2,0.4,0.1,0.6,0.1c0.2-0.1,0.3-0.1,0.4-0.1l0,0c0,0,0.4-0.3,0.4-1c0-0.1-0.1-0.2-0.1-0.4c0-0.1,0.1-0.1,0.3-0.2
				c0.3-0.1,0.7-0.3,0.7-0.5l0-0.1l0.1,0c0.2-0.1,0.4-0.2,0.4-0.3l0,0l0.1-0.2l0.1,0c0,0,0.3,0.1,0.3-0.1c0-0.1,0.2-0.1,0.3-0.1
				c0,0,0.1,0,0.1,0l0,0c0,0,0,0,0.1,0l0.1-0.1c0,0,0-0.1,0-0.1c0,0,0-0.1-0.1-0.1c-0.1,0-0.2,0-0.2,0c0,0,0,0-0.1,0
				c-0.1,0-0.2,0.1-0.3,0c0,0.1-0.1,0.1-0.2,0.1c-0.1,0-0.1,0-0.2,0c-0.1,0.1-0.1,0.2-0.3,0.2c0,0-0.1,0-0.1,0c0,0,0,0,0,0.1
				c0,0-0.1,0-0.1,0c0,0,0,0-0.1,0c0,0,0,0-0.1,0c0,0,0,0,0,0c0,0.1-0.1,0.1-0.2,0.1c0,0,0,0-0.1,0l0,0.1l0,0.1l-0.2,0c0,0,0,0,0,0
				c0,0-0.1,0-0.1,0c0,0,0,0-0.1,0c0,0,0,0,0,0c0,0,0,0,0,0c0.1,0,0.2,0,0.2,0l0.1,0l0.1,0.1c0,0.1,0,0.1,0,0.2l-0.2,0.2
				c0,0,0,0-0.1,0l0,0.1c-0.1,0-0.4,0.2-0.5,0.3l0,0l0,0c0,0-0.1,0-0.2,0c0,0,0,0,0,0c0,0,0,0-0.1,0c-0.1,0-0.1,0-0.2,0.1l0,0.1l0,0
				l0,0.2l-0.1-0.1l0,0l0-0.1c0,0,0,0,0,0l0,0c0,0,0,0.1,0,0.1c0,0.1,0,0.2-0.1,0.4c-0.1,0.1-0.1,0.1-0.1,0.1l0,0l0,0
				c0,0.1-0.1,0.2,0,0.2C23.6,20,23.6,20.1,23.5,20.2z M32.3,19.6l1.4,1c0-0.1,0.1-0.2,0.1-0.3v0c0,0-0.2-0.2-0.4-0.2
				c0,0-0.6-0.2-0.6-0.7v0c-0.1,0-0.3-0.1-0.5-0.1c0,0,0,0,0,0C32.2,19.4,32.3,19.5,32.3,19.6z M32.3,20.3L32.3,20.3
				c0-0.3-0.1-0.6-0.2-0.8c0,0,0,0,0,0.1l0,0.1L32.3,20.3z M31.9,19.8l0.1,0.5c0,0,0,0,0,0C31.9,20.2,31.9,20,31.9,19.8L31.9,19.8z
				 M32.9,19.3C32.9,19.3,32.9,19.3,32.9,19.3c0,0-0.1,0-0.1,0.2c0,0.3,0.5,0.5,0.5,0.5c0.2,0.1,0.4,0.2,0.5,0.2c0,0,0,0,0,0
				c-0.1-0.1-0.3-0.2-0.5-0.2c-0.2,0-0.3-0.1-0.4-0.3C32.9,19.5,32.9,19.4,32.9,19.3C33,19.3,33,19.3,32.9,19.3z M31.7,19.5
				C31.7,19.5,31.7,19.5,31.7,19.5l0.1,0l0.1,0l0-0.1l-0.1-0.3c0,0.1,0.1,0.2,0.1,0.2l0,0.1l-0.5,0c0,0-0.1,0-0.1,0c0,0,0,0,0,0
				c0,0,0,0,0.1,0C31.3,19.5,31.5,19.5,31.7,19.5L31.7,19.5L31.7,19.5z M32.2,19.1C32.2,19.1,32.2,19.1,32.2,19.1
				c0.2,0.1,0.3,0.1,0.5,0.1L32.2,19.1C32.2,19.1,32.2,19.1,32.2,19.1z M31.3,19.1C31.3,19.1,31.3,19.1,31.3,19.1c0,0,0.1,0,0.2,0.1
				l0,0L31.3,19.1C31.4,19.1,31.3,19.1,31.3,19.1z M32.6,18.7C32.6,18.7,32.6,18.8,32.6,18.7c0.1,0.3,0.1,0.4,0.1,0.4l0,0.1l0,0
				L32.6,18.7C32.6,18.7,32.6,18.7,32.6,18.7z M32.2,18.7C32.2,18.7,32.2,18.8,32.2,18.7c0.1,0.1,0.2,0.2,0.3,0.2l0,0L32.2,18.7
				C32.2,18.7,32.2,18.7,32.2,18.7z M23.9,18.7C23.9,18.7,23.9,18.8,23.9,18.7c0.1,0,0.1,0,0.2,0c0,0,0.1,0,0.1,0c0,0,0,0,0,0
				c0.1,0,0.1-0.1,0.3-0.2c0.2-0.1,0.4-0.2,0.5-0.3l0,0c0,0-0.1,0-0.1,0c-0.1,0-0.1,0-0.1-0.1l0,0l0-0.2c0,0,0,0,0,0l0,0
				c0,0,0.1-0.1,0.2-0.1c0,0,0,0,0.1,0c0,0,0.1,0,0.2,0l0-0.2l0.1,0v0l0.1,0c0,0,0.1,0,0.1,0c0.1,0,0.1-0.1,0.1-0.1l0-0.1l0.1,0
				l0-0.1l0.1,0.1c0,0,0.1,0,0.1,0c0,0,0.1,0,0.1-0.1l0-0.1l0.1,0l0,0l0.1,0c0.1,0,0.1,0,0.2,0c0.1,0,0.1-0.1,0.1-0.1l0-0.1l0.1,0.1
				c0.1,0,0.1,0,0.2,0c0.1,0,0.1-0.1,0.1-0.1l0-0.1l0,0l0,0L27,17c0,0,0,0,0,0c0,0,0.1,0,0.1,0c0,0,0.1,0,0.1,0c0,0,0.1,0,0.1,0
				l0.1-0.1l0.1,0.1c0,0,0,0,0,0c0.1,0,0.1,0,0.2,0c0,0,0,0,0,0c0.1-0.1,0.1-0.1,0.1-0.2c0,0,0.1,0,0.1-0.2c0-0.1,0-0.1,0-0.2
				c-0.1-0.1-0.2-0.1-0.3,0l-0.1,0l0-0.1c0,0,0,0,0,0c-0.1,0-0.2,0-0.3,0.1L27,16.5l-0.1-0.1c0,0,0,0-0.1,0c-0.1,0-0.2,0.1-0.3,0.2
				l-0.1,0.1l-0.1-0.1c0-0.1-0.1-0.1-0.1-0.1l0,0c-0.1,0-0.2,0.1-0.3,0.2L26,16.8l-0.1-0.1c0,0-0.1,0-0.1,0c-0.1,0-0.3,0.2-0.3,0.2
				L25.4,17l-0.1-0.1c0,0-0.2,0-0.3,0.2l0,0l0,0c-0.3,0-0.5,0.4-0.5,0.4l0,0l0,0c-0.4,0.2-0.5,0.8-0.5,0.8l0,0l0,0
				C24,18.5,23.9,18.6,23.9,18.7L23.9,18.7z M25.2,35c0,0-0.5-0.3-0.7-0.9c0,0-0.3-0.7-0.6-0.9c0,0-0.2-0.1-0.2-0.2
				c-0.1,0-0.2-0.1-0.3-0.3l0.2-0.1c0.1,0.2,0.2,0.2,0.2,0.2l0.1,0l0,0.1c0,0.1,0.1,0.2,0.2,0.2c0.3,0.2,0.7,0.9,0.7,1
				c0.2,0.5,0.6,0.8,0.6,0.8L25.2,35z"/>
		</g>
	</g>
	<g>
		<g>
			<path class="st0" d="M39.4,39.5c-0.1,0-0.2-0.1-0.3-0.1c-0.1,0-0.2-0.1-0.2-0.1c0,0-0.2,0-0.4-0.2c0,0-0.2-0.1-0.3-0.1
				c-0.5,0-0.8-0.1-0.8-0.2l0.2,0c0,0,0,0,0,0c0,0,0.3,0.1,0.6,0.1c0.1,0,0.3,0,0.4,0.1c0.2,0.2,0.3,0.2,0.3,0.2c0,0,0.1,0,0.3,0.1
				c0.1,0.1,0.2,0.1,0.2,0.1l0,0c0,0-0.1-0.1-0.1-0.1c-0.1,0-0.1-0.1-0.1-0.1l0-0.1l0.1,0c0.1,0,0.1,0,0.1,0c0,0,0,0,0,0
				c0.1,0.1,0.2,0.2,0.3,0.2c0,0-0.1-0.1-0.1-0.2c0,0-0.1-0.1-0.1-0.1l0.1-0.1c0,0,0.1,0.1,0.1,0.1c0.2,0.1,0.2,0.1,0.2,0.1l0,0
				c0,0-0.1-0.1-0.1-0.1c0,0-0.1-0.1-0.1-0.1l0.1-0.2c0,0,0.1,0.1,0.1,0.1c0.1,0.1,0.2,0.1,0.2,0.1l0,0c0,0-0.1-0.1-0.1-0.1
				c0,0-0.1-0.1-0.2-0.1l0.1-0.2c0,0,0.1,0.1,0.2,0.1c0.2,0.1,0.2,0,0.2,0c0,0,0,0,0,0c0-0.1-0.3-0.2-0.4-0.2
				c-0.1,0-0.4-0.1-0.5-0.1l0,0c-0.6-0.3-1.1-0.6-1.1-0.6l0.1-0.2c0,0,0.5,0.2,1.1,0.6c0.2,0.1,0.4,0.1,0.4,0.1c0,0,0.5,0.1,0.6,0.3
				c0,0,0,0.1-0.1,0.2c0,0-0.1,0.1-0.2,0.1c0,0,0,0,0,0c0,0,0,0.1,0,0.1c0,0,0,0.1-0.1,0.1c0,0-0.1,0-0.1,0c0,0,0,0,0,0
				c0,0,0,0.1-0.1,0.1c0,0-0.1,0-0.1,0c0,0,0,0,0,0c0,0,0,0.1,0,0.1c0,0-0.1,0.1-0.1,0.1c0,0-0.1,0-0.1,0c0,0,0,0,0,0
				C39.6,39.4,39.5,39.5,39.4,39.5C39.4,39.5,39.4,39.5,39.4,39.5z"/>
		</g>
	</g>
	<g>
		<g>
			<path class="st0" d="M35,38.7c-0.5,0-1-0.1-1.4-0.2c-0.5-0.1-0.8-0.1-0.8,0c-0.1,0-0.4,0.1-0.7,0c-0.2,0-0.3-0.1-0.5-0.1
				l-0.3-0.1c-0.3-0.1-0.4,0-0.4,0.1l0,0l0,0c0,0-0.5,0.1-0.8,0c-0.2,0-0.3-0.1-0.4-0.1c-0.3-0.1-0.5-0.1-0.8-0.1
				c-0.1,0-0.2,0.1-0.2,0.1c-0.1,0-0.1,0.1-0.4,0.1c-0.3,0-0.5-0.1-0.5-0.2c0,0,0-0.1,0-0.1c0-0.1,0-0.3,0-0.6c-0.1,0-0.1,0-0.1,0
				c-0.5,0.2-0.9,0.3-1.2,0.3c-0.1,0-0.1,0-0.1-0.1c0-0.1,0-0.1,0.1-0.1c0.2,0,0.6,0,1.1-0.2c0,0,0.4-0.2,0.6,0
				c0.1,0,0.1,0.1,0.2,0.2l0,0c0,0,0,0.2-0.3,0.5c0,0-0.1,0.1-0.1,0.1c0,0,0,0,0,0.1c0,0,0,0,0,0c0,0.1,0.1,0.1,0.3,0.1
				c0.3,0,0.3,0,0.4-0.1c0,0,0.1,0,0.2-0.1c0.3-0.1,0.6,0,0.9,0.1c0.1,0,0.3,0.1,0.4,0.1c0.2,0,0.6,0,0.7,0c0.1-0.1,0.3-0.2,0.6-0.1
				l0.3,0.1c0.2,0,0.3,0.1,0.5,0.1c0.3,0.1,0.6,0,0.6,0l0,0c0.1,0,0.4-0.1,0.9,0c0.6,0.1,1.2,0.3,1.7,0.2c0.2,0,0.5,0,0.8,0
				c0.2,0,0.4,0,0.5,0c0.4,0,1.2-0.3,1.3-0.3c0,0,0.1,0,0.1,0c0,0,0,0.1,0,0.1c-0.1,0-1,0.3-1.4,0.4c-0.2,0-0.4,0-0.6,0
				c-0.3,0-0.5,0-0.7,0C35.2,38.7,35.1,38.7,35,38.7z M27.8,37.3c0,0.1,0,0.3,0,0.4c0.1-0.1,0.2-0.2,0.2-0.3
				C28,37.4,27.9,37.4,27.8,37.3C27.9,37.3,27.9,37.3,27.8,37.3z M25.2,38.6C25.1,38.6,25.1,38.6,25.2,38.6
				c-0.1-0.1-0.1-0.1-0.1-0.2c0.1-0.1,0.2-0.2,0.2-0.2c0,0-0.1-0.1-0.1-0.1c0,0-0.2,0-0.3-0.2c-0.1-0.1-0.2-0.2-0.2-0.4
				c0-0.2,0.1-0.4,0.2-0.5c0.1-0.1,0.2-0.3,0.2-0.3c0-0.1-0.1-0.8,0-1.1c0.1-0.3,0-0.7,0-0.7c0-0.1,0-0.1,0.1-0.1c0,0,0.1,0,0.1,0.1
				c0,0,0,0.5,0,0.8c-0.1,0.3,0,0.9,0,1c0,0.1-0.1,0.4-0.3,0.5c-0.1,0-0.1,0.2-0.1,0.4c0,0.1,0,0.2,0.1,0.3c0,0,0,0,0.1,0
				c-0.1-0.1-0.1-0.2-0.1-0.3c0-0.2,0-0.3,0.2-0.4c0.2-0.1,0.4-0.1,0.7,0.1c0,0,0.1,0.1,0,0.1c0,0-0.1,0.1-0.1,0
				c-0.3-0.1-0.4-0.1-0.5-0.1c0,0-0.1,0.1-0.1,0.2c0,0.1,0,0.2,0.2,0.2c0.4,0.1,0.4,0.4,0.4,0.5c0,0.1,0,0.1-0.1,0.1
				c-0.1,0-0.1,0-0.1-0.1c0,0,0-0.2-0.2-0.3c0.1,0,0.2,0.1,0.2,0.2C25.5,38.4,25.4,38.5,25.2,38.6C25.2,38.6,25.2,38.6,25.2,38.6z
				 M24.1,38.5C24.1,38.5,24.1,38.5,24.1,38.5c-0.2-0.2-0.2-0.3,0-0.5c0,0,0,0,0,0c-0.1,0-0.1,0-0.1,0.2c0,0.1-0.1,0.1-0.1,0.1
				c-0.1,0-0.1-0.1-0.1-0.1c0-0.2,0.1-0.3,0.2-0.3c0.1,0,0.1-0.1,0.2-0.3c0,0,0-0.1,0-0.2c-0.1-0.1-0.3,0-0.5,0c0,0-0.1,0-0.1-0.1
				c0,0,0-0.1,0.1-0.1c0.1,0,0.5-0.1,0.7,0c0.1,0.1,0.1,0.2,0,0.4c0,0,0,0,0,0c0.2-0.3,0.1-0.7-0.1-1.2c-0.2-0.5-0.2-0.9-0.2-1.2
				v-0.1c0-0.3-0.1-0.9-0.1-0.9c-0.1-0.5-0.2-1.2-0.2-1.2c0-0.1,0-0.1,0.1-0.1c0,0,0.1,0,0.1,0.1c0,0,0,0.7,0.2,1.2
				c0,0,0.2,0.6,0.2,0.9v0.1c0,0.3,0,0.7,0.2,1.1c0.2,0.5,0.3,1.1,0,1.4c-0.2,0.2-0.2,0.4-0.2,0.5C24.2,38.4,24.2,38.5,24.1,38.5
				C24.2,38.5,24.2,38.5,24.1,38.5z M37.3,38.2C37.3,38.2,37.2,38.2,37.3,38.2c-0.1-0.1-0.1-0.2,0-0.2c0.5-0.1,0.9-0.5,0.9-0.5
				c0,0,0.1,0,0.1,0c0,0,0,0.1,0,0.1C38.3,37.6,37.9,38.1,37.3,38.2C37.3,38.2,37.3,38.2,37.3,38.2z M28,38.2
				C27.9,38.2,27.9,38.2,28,38.2c-0.2-0.2-0.1-0.3,0-0.4c0,0,0.4-0.4,0.1-0.7c-0.3-0.3-0.3-0.5-0.3-0.6c0-0.1,0-0.3-0.1-0.6
				c-0.1-0.4-0.1-0.5-0.1-0.5c0-0.1,0-0.1,0.1-0.1c0.1,0,0.1,0,0.1,0.1c0,0,0,0.1,0.1,0.5c0.1,0.3,0.1,0.5,0.1,0.7
				c0,0.1,0,0.2,0.3,0.5c0.3,0.4,0,0.8-0.2,0.9c0,0-0.1,0.1-0.1,0.1C28.1,38.1,28.1,38.1,28,38.2C28,38.2,28,38.2,28,38.2z
				 M31.7,36.6C31.6,36.6,31.6,36.6,31.7,36.6c-0.1-0.1-1.5-1-2.1-1.9c0,0,0-0.1,0-0.1c0,0,0.1,0,0.1,0c0.6,0.9,2,1.9,2,1.9
				C31.7,36.5,31.8,36.5,31.7,36.6C31.7,36.6,31.7,36.6,31.7,36.6z M32.4,35.2C32.4,35.2,32.4,35.2,32.4,35.2c-1-0.4-2-1.4-2-1.4
				c0,0,0-0.1,0-0.1c0,0,0.1,0,0.1,0c0,0,1,1,1.9,1.4C32.5,35.1,32.6,35.1,32.4,35.2C32.5,35.2,32.5,35.2,32.4,35.2z M27,34.8
				c-0.1,0-0.2,0-0.2,0c-0.2,0-0.3-0.1-0.5-0.1c-0.3,0-0.5,0-1.2-0.3c-0.6-0.2-0.7-0.5-0.7-0.5c0,0,0-0.1,0.1-0.1c0,0,0.1,0,0.1,0.1
				c0,0,0.1,0.3,0.6,0.4c0.7,0.3,0.9,0.3,1.2,0.3c0.1,0,0.3,0,0.5,0.1c0.4,0.1,0.8-0.2,0.9-0.3c0.1-0.2,0.7-0.6,0.8-0.7
				c0,0,0.6-0.4,0.9-0.9c0.4-0.5,0.4-0.8,0.5-1.6c0-0.1,0.1-0.3,0.1-0.5c0.2-1.1-0.1-1.3-0.1-1.3c0,0,0-0.1,0-0.1c0,0,0.1,0,0.1,0
				c0,0,0.3,0.3,0.1,1.5c0,0.2-0.1,0.4-0.1,0.5C30,32,30,32.3,29.6,32.9c-0.3,0.5-0.9,0.9-1,0.9c-0.3,0.2-0.7,0.5-0.7,0.6
				C27.8,34.6,27.5,34.8,27,34.8z M36.3,34.3C36.3,34.3,36.3,34.3,36.3,34.3c-0.6-0.5-0.9-1.3-1.1-1.5c0,0,0,0,0,0
				c-0.2-0.6-0.4-0.9-0.4-1c-0.3-1.4-1.5-1.4-1.5-1.4c-0.1,0-0.1,0-0.1-0.1c0-0.1,0-0.1,0.1-0.1c0,0,1,0.1,1.5,1.1
				c0-0.2,0.2-0.8,0.6-1.4c0,0,0.1-0.1,0.1,0c0,0,0.1,0.1,0,0.1c-0.4,0.6-0.5,1.4-0.5,1.4c0,0.1-0.1,0.1-0.1,0.1
				c0,0.1,0.1,0.2,0.1,0.4c0,0,0,0.1,0.3,0.9c0,0,0,0,0,0c0,0,0.4,1,1,1.6C36.4,34.2,36.4,34.2,36.3,34.3
				C36.4,34.3,36.3,34.3,36.3,34.3z M32.6,34C32.6,34,32.6,34,32.6,34c-1-0.2-1.8-0.7-1.8-0.7c0,0-0.1-0.1,0-0.1c0,0,0.1-0.1,0.1,0
				c0,0,0.8,0.6,1.7,0.7C32.7,33.8,32.7,33.9,32.6,34C32.7,34,32.7,34,32.6,34z M36.5,33.9C36.5,33.9,36.5,33.9,36.5,33.9
				c-0.1,0-0.1-0.1-0.1-0.1c0,0,0,0-0.1-0.1c0,0-0.1,0-0.1,0c-0.2-0.1-0.3-0.1-0.4-0.5c-0.1-0.5-0.1-1.4,0-1.9c0-0.5,0.1-1,0.1-1
				c0-0.1,0-0.1,0.1-0.1c0.1,0,0.1,0,0.1,0.1c0,0,0,0.5-0.1,1c-0.1,0.5-0.1,1.5,0,1.9c0.1,0.3,0.1,0.3,0.3,0.4c0,0,0,0,0,0
				c-0.1,0-0.2-0.2-0.2-0.4c0-0.1,0.1-0.3,0.2-0.4l0,0l0.2-0.1c0,0,0.1,0,0.1,0.1c0,0,0,0.1-0.1,0.1l-0.2,0.1
				c-0.1,0.1-0.2,0.2-0.2,0.2c0,0.1,0.1,0.2,0.2,0.2c0,0,0.1,0.1,0,0.1c0,0,0,0-0.1,0c0,0,0,0,0,0C36.6,33.6,36.6,33.8,36.5,33.9
				C36.6,33.8,36.6,33.9,36.5,33.9z M26.1,33.3c-0.3,0-0.8,0-1-0.1c0,0-0.4-0.1-0.7-0.2c-0.1,0-0.8-0.1-1-0.2c0,0,0-0.1,0-0.1
				c0,0,0.1,0,0.1,0c0.1,0.1,0.6,0.2,0.9,0.2c0.3,0.1,0.7,0.2,0.7,0.2c0.3,0.1,1.2,0.1,1.2,0.1c1.2-0.1,1.8-1.1,2.1-1.7
				c0.2-0.5,0.5-0.9,0.7-1.2c0.1-0.1,0.1-0.2,0.2-0.3c0.3-0.4,0.3-0.5,0.3-0.6c0-0.1,0-0.1,0.1-0.1c0.1,0,0.1,0,0.1,0.1
				c0,0,0,0.2-0.3,0.7c-0.1,0.1-0.1,0.2-0.2,0.3c-0.2,0.4-0.4,0.7-0.7,1.2c-0.3,0.6-1,1.7-2.2,1.8C26.4,33.3,26.3,33.3,26.1,33.3z
				 M28.8,33C28.8,33,28.7,32.9,28.8,33c-0.1-0.1-0.1-0.2,0-0.2c0.2,0,0.3-0.3,0.3-0.3c0,0,0.1-0.1,0.1,0c0,0,0.1,0.1,0,0.1
				C29.3,32.6,29.2,33,28.8,33z M32.2,32.9C32.2,32.9,32.2,32.9,32.2,32.9c-0.8-0.1-1.1-0.3-1.1-0.3c0,0-0.1-0.1,0-0.1
				c0,0,0.1-0.1,0.1,0l0,0c0,0,0.3,0.2,1.1,0.3C32.2,32.7,32.3,32.7,32.2,32.9C32.3,32.8,32.2,32.9,32.2,32.9z M26.1,32.4
				c-0.1,0-0.2,0-0.3,0c-0.9-0.1-1.3-0.5-1.3-0.5l0,0l0,0c0-0.2-0.2-0.3-0.2-0.3l0,0c-0.1,0-0.3-0.1-0.4-0.3
				c-0.1-0.2-0.2-0.3-0.2-0.3c-0.6-0.4-0.4-1.1-0.4-1.1c0-0.1,0.1-0.1,0.1-0.1c0.1,0,0.1,0.1,0.1,0.1c0,0-0.1,0.6,0.4,0.9l0,0
				c0,0,0.1,0.1,0.3,0.4c0.1,0.1,0.3,0.2,0.3,0.2c0,0,0,0,0,0c0.1,0,0.3,0.2,0.3,0.4c0.1,0.1,0.5,0.3,1.2,0.4
				c1.1,0.1,1.6-0.5,1.6-0.5c0,0,0.5-0.6,0.6-0.8c0.1-0.1,0.1-0.2,0.2-0.3c0.1-0.2,0.2-0.5,0.5-0.8c0.1-0.1,0.2-0.2,0.2-0.3
				c0.1-0.1,0.1-0.2,0.3-0.3c0,0,0.1,0,0.1,0c0,0,0,0.1,0,0.1c-0.2,0.1-0.2,0.2-0.2,0.3c0,0.1-0.1,0.2-0.2,0.3
				c-0.3,0.4-0.4,0.6-0.5,0.8c-0.1,0.1-0.1,0.3-0.2,0.4c-0.1,0.1-0.6,0.7-0.6,0.8C27.6,31.9,27.1,32.4,26.1,32.4z M22.6,31
				C22.6,31,22.6,31,22.6,31c-0.3-0.1-0.3-0.3-0.4-0.9c-0.1-0.6,0.2-1.2,0.9-1.8c0.6-0.5,0.6-0.7,0.6-0.7c0-0.1,0-0.1,0.1-0.1
				c0.1,0,0.1,0,0.1,0.1c0,0,0,0.3-0.6,0.9c-0.6,0.6-0.9,1.1-0.8,1.7c0.1,0.6,0.1,0.7,0.2,0.8C22.7,30.9,22.7,31,22.6,31
				C22.7,31,22.6,31,22.6,31z M31.2,30.8C31.2,30.8,31.1,30.8,31.2,30.8c-0.1-1.1-0.8-1.3-0.8-1.3c-0.1,0-0.1-0.1-0.1-0.1
				c0-0.1,0.1-0.1,0.1-0.1C30.4,29.3,31.3,29.5,31.2,30.8C31.3,30.8,31.3,30.8,31.2,30.8C31.2,30.8,31.2,30.8,31.2,30.8z M29.8,28.5
				C29.8,28.5,29.7,28.5,29.8,28.5c-2-0.8-1.9-2.2-1.9-2.2c0-0.1,0-0.1,0.1-0.1c0.1,0,0.1,0,0.1,0.1c0,0.1,0,1.3,1.8,2
				C29.9,28.3,29.9,28.4,29.8,28.5C29.8,28.5,29.8,28.5,29.8,28.5z M21.7,27.3C21.7,27.3,21.6,27.3,21.7,27.3
				c-0.3-0.4-0.2-1.4-0.2-1.5c0-0.1,0.1-0.4,0.1-0.9c0-0.5,0.1-0.9,0.1-0.9c0,0,0.1-0.1,0.1-0.1c0,0,0.1,0.1,0.1,0.1
				c0,0-0.1,0.4-0.1,0.8c0,0.4,0,0.8-0.1,1c0,0.1-0.1,1,0.1,1.4C21.8,27.2,21.8,27.2,21.7,27.3C21.7,27.3,21.7,27.3,21.7,27.3z
				 M31,22.6C31,22.6,31,22.6,31,22.6c-0.1,0-0.1-0.1-0.1-0.1c0,0,0.1-0.4,0.3-0.6c0,0,0.1-0.1,0.1,0c0,0,0,0.1,0,0.1
				C31.2,22.2,31.1,22.5,31,22.6C31.1,22.6,31.1,22.6,31,22.6z"/>
		</g>
	</g>
	<g>
		<g>
			<path class="st0" d="M29.1,36.9c-0.5-0.5-0.9-1.6-0.9-1.7l0.2-0.1c0,0,0.4,1.1,0.8,1.6L29.1,36.9z M30.6,36.7
				c-1.4-1.4-1.5-1.7-1.5-1.7l0.2-0.1c0,0,0.1,0.3,1.5,1.7L30.6,36.7z"/>
		</g>
	</g>
	<g>
		<g>
			<path class="st0" d="M20.1,38.1L20,38c-0.3-0.4-0.8-0.4-1.3-0.4c-0.7-0.1-1.5-0.1-1.9-0.9c-0.4-0.6-0.1-1.6,0.2-2.3
				c0.1-0.4,0.3-0.7,0.3-1c0-0.9-0.4-1.3-0.6-1.5c0,0,0,0-0.1-0.1l-0.1-0.1l0.1-0.1c0.1-0.1,0.3-0.3,0.4-0.4c0.1,0,0.1-0.1,0.2-0.1
				l0.1-0.1l0.1,0c0.2,0.1,0.4,0.2,0.6,0.2c0.3,0,0.6-0.1,0.9-0.2c0.4-0.1,0.8-0.3,1.3-0.3c0.5,0,0.9,0.1,1.3,0.3
				c0.3,0.1,0.6,0.2,0.9,0.2c0.2,0,0.4-0.1,0.6-0.2l0.1,0l0.1,0.1c0.1,0.1,0.2,0.2,0.3,0.3c0.1,0.1,0.2,0.2,0.3,0.3l0.1,0.1
				l-0.1,0.1c-0.2,0.1-0.7,1-0.7,1.6c0,0.4,0.2,0.7,0.3,1.1c0.3,0.7,0.6,1.5,0.2,2.2c-0.4,0.8-1.2,0.8-1.9,0.9
				c-0.6,0-1.1,0.1-1.3,0.4L20.1,38.1z M16.8,31.8c0.2,0.2,0.7,0.7,0.6,1.7c0,0.3-0.1,0.6-0.3,1c-0.3,0.7-0.6,1.6-0.2,2.1
				c0.4,0.7,1.1,0.7,1.8,0.8c0.5,0,1,0.1,1.4,0.4c0.3-0.3,0.8-0.4,1.4-0.4c0.7-0.1,1.4-0.1,1.7-0.8c0.3-0.6,0.1-1.3-0.2-2
				c-0.1-0.4-0.3-0.8-0.3-1.1c-0.1-0.6,0.4-1.4,0.7-1.7c-0.1-0.1-0.1-0.1-0.2-0.2c-0.1-0.1-0.1-0.1-0.2-0.2
				c-0.2,0.1-0.4,0.2-0.7,0.2h0c-0.3,0-0.6-0.1-1-0.2c-0.4-0.1-0.8-0.3-1.2-0.3c-0.4,0-0.8,0.1-1.2,0.3c-0.3,0.1-0.7,0.2-1,0.2
				c-0.2,0-0.4-0.1-0.7-0.2c0,0-0.1,0.1-0.1,0.1C17.1,31.6,17,31.7,16.8,31.8z"/>
		</g>
	</g>
	<g>
		<g>
			<rect x="17.1" y="34.3" class="st0" width="1.7" height="0.2"/>
		</g>
	</g>
	<g>
		<g>
			<rect x="21.4" y="34.3" class="st0" width="1.7" height="0.2"/>
		</g>
	</g>
	<g>
		<g>
			<path class="st0" d="M20.2,38.5L20.2,38.5l-0.2,0c-0.2-0.5-1.4-0.6-1.5-0.6c-1.6,0-2-0.7-2.1-1.2c-0.2-0.6-0.1-1.5,0.2-2.2l0.1,0
				l-0.1,0c0.3-0.6,0.3-1,0.3-1c0.1-0.7-0.8-1.6-0.8-1.6l-0.1-0.1l1.1-1.1l0.1,0.1c0.4,0.4,1,0.3,1.5,0.1c0.5-0.2,1.3-0.2,1.3-0.2
				l0,0.1l0-0.1c0,0,0.8,0,1.3,0.2c0.5,0.2,1,0.3,1.4-0.1l0.1-0.1l1.2,1.1l-0.1,0.1c0,0-0.8,0.7-0.8,1.6c0,0,0,0.5,0.3,1.1
				c0.3,0.7,0.4,1.5,0.2,2.2c-0.2,0.7-1.1,1.2-2.1,1.2C21.3,37.9,20.4,38,20.2,38.5z M16.8,34.6c-0.3,0.7-0.4,1.5-0.2,2.1
				c0.1,0.4,0.6,1,2,1c0.1,0,1.1,0.1,1.5,0.6c0.4-0.5,1.5-0.6,1.5-0.6c0.9,0,1.8-0.4,2-1c0.1-0.6,0.1-1.4-0.2-2.1l0.1,0l-0.1,0
				c-0.3-0.7-0.3-1.1-0.3-1.2c0-0.8,0.6-1.4,0.8-1.6l-0.9-0.8c-0.5,0.4-1,0.3-1.6,0.1c-0.5-0.2-1.2-0.2-1.3-0.2
				c-0.1,0-0.8,0-1.3,0.2c-0.5,0.2-1.1,0.4-1.6-0.1l-0.8,0.9c0.2,0.2,0.8,1,0.8,1.7C17.2,33.5,17.1,34,16.8,34.6L16.8,34.6z"/>
		</g>
	</g>
	<g>
		<g>
			<path class="st0" d="M18.4,36.6l0.7-1.9l-1.7-1.1l2.1,0l0.6-1.9l0.6,1.9l2.1,0l-1.7,1.1l0.7,1.9l-1.7-1.2L18.4,36.6z M20.1,35.2
				l1.3,0.9l-0.5-1.4l1.3-0.9l-1.5,0l-0.5-1.5l-0.5,1.5l-1.6,0l1.3,0.9l-0.5,1.4L20.1,35.2z"/>
		</g>
	</g>
	<g>
		<g>
			<path class="st0" d="M18.9,30.9v-0.1c0-0.1,0-1.7,0.1-2c0-0.1,0.1-0.2,0.1-0.2c0,0,0-0.1,0-0.1c0,0,0-0.1,0-0.1
				c0,0-0.1-0.1-0.1-0.2c0,0,0-0.1,0-0.1C19,28,19,27.9,19,27.8c0-0.1,0.1-0.2,0.1-0.2c0-0.1,0-0.1,0-0.2c0-0.1,0-0.1,0.1-0.2
				c0,0,0,0,0,0c0,0-0.1-0.1-0.1-0.2c0-0.1,0-0.1,0.1-0.2c-0.1,0-0.1-0.1-0.2-0.2c0-0.1,0-0.2,0-0.2c-0.1-0.1-0.1-0.2-0.1-0.3
				c0-0.2,0.1-0.3,0.2-0.3c0,0,0-0.1,0-0.1c0,0,0-0.1,0.1-0.2l0.1,0v-0.1c-0.1,0-0.2-0.1-0.3-0.2c-0.1-0.3,0.1-0.6,0.1-0.6l0.7-0.9
				l0.7,0.9c0,0,0.3,0.4,0.1,0.6c-0.1,0.1-0.2,0.2-0.3,0.2v0.1h0.9v0.2h-0.7c0,0,0,0,0,0.1c0,0,0,0,0,0h0.6v0.2h-0.5
				c0,0,0.1,0.1,0.1,0.1h0.5v0.2h-0.5c0,0,0,0.1,0,0.1h0.5v0.2h-0.6c0,0,0,0.1,0,0.2h0.7v0.2h-0.9c0,0,0,0.1,0.1,0.2
				c0,0.1,0,0.2-0.1,0.2c0.1,0,0.1,0.1,0.1,0.2c0,0,0,0.1,0,0.2c0.1,0,0.1,0.1,0.1,0.2c0,0.1,0,0.2-0.1,0.2c0,0,0,0.1,0,0.1
				c0,0,0,0.1-0.1,0.2c0,0,0,0.1,0,0.1c0,0,0,0.1,0,0.1c0.1,0.1,0.1,0.2,0.1,0.2l0.2,2l-0.1,0c-0.5-0.1-0.9,0-0.9,0
				c-0.4,0-0.8,0.1-0.8,0.1L18.9,30.9z M19.3,28.7c0,0-0.1,0-0.2,0.2c0,0.2,0,1.2-0.1,1.8c0.1,0,0.4-0.1,0.7-0.1c0,0,0.3,0,0.8,0
				l-0.2-1.8c0,0,0-0.1-0.1-0.1c0,0-0.1,0-0.1,0H19.3z M20.2,28.5L20.2,28.5c0.1,0,0.1,0,0.1,0c0,0,0,0,0,0c0,0-0.1,0-0.1,0h-0.9
				c0,0-0.1,0-0.1,0c0,0,0,0,0,0c0,0,0.1,0,0.1,0h0.4C19.8,28.5,20,28.5,20.2,28.5z M19.8,28.2h0.5c0.1,0,0.1,0,0.1,0c0,0,0,0,0,0
				c0,0-0.1,0-0.1,0L19.8,28.2l-0.4-0.1c0,0-0.1,0-0.1,0c0,0,0,0,0,0c0,0,0,0,0,0c0,0,0,0,0.1,0H19.8z M19.3,27.7c0,0-0.1,0-0.1,0.1
				c0,0.1,0.1,0.1,0.1,0.1l1,0c0,0,0.1,0,0.1-0.1c0-0.1-0.1-0.1-0.1-0.1H19.3z M19.3,27.6h1c0,0,0,0,0-0.1c0-0.1-0.1-0.1-0.1-0.1
				h-0.1c0,0,0,0,0,0h-0.6c0,0,0,0,0,0h-0.1C19.4,27.4,19.3,27.4,19.3,27.6C19.3,27.5,19.3,27.6,19.3,27.6z M19.4,26.9
				c0,0-0.1,0-0.1,0.2c0,0.1,0,0.1,0,0.1c0,0,0.1,0.1,0.2,0.1c0,0,0,0,0,0h0.6c0.1,0,0.2,0,0.2-0.1c0,0,0,0,0-0.1
				c0-0.1-0.1-0.2-0.2-0.2L19.4,26.9z M20.2,26.7L20.2,26.7C20.2,26.7,20.2,26.7,20.2,26.7L20.2,26.7c0.1,0,0.2,0,0.2-0.1
				c0,0,0,0,0-0.1l-0.6,0l-0.6,0c0,0,0,0,0,0c0,0.1,0.2,0.1,0.3,0.1H20.2z M19.3,26c0,0-0.2,0-0.2,0.2c0,0.2,0.1,0.2,0.2,0.2l0.6,0
				l0.5,0l0,0l0.1,0c0,0,0.1-0.1,0.1-0.2c0,0,0,0,0,0c0,0,0-0.1-0.1-0.1C20.4,26,20.3,26,20.3,26L19.3,26z M19.4,25.7l-0.1,0.1
				c0,0,0,0,0,0c0,0,0,0,0.1,0l0.5,0l0.3,0l0,0h0.3c0,0,0,0,0,0c0,0,0,0,0,0l-0.1-0.1H19.4z M19.4,25.5h0.7v-0.1L19.4,25.5
				C19.5,25.4,19.5,25.4,19.4,25.5L19.4,25.5z M20.1,25.2h0.1c0,0,0,0,0,0c0.1,0,0.2-0.1,0.2-0.1c0.1-0.1-0.1-0.4-0.1-0.4L19.8,24
				l-0.5,0.7c0,0.1-0.2,0.3-0.1,0.4c0,0.1,0.1,0.1,0.2,0.1c0,0,0,0,0,0h0.1c0.1,0,0.1,0,0.1-0.1c0,0,0-0.1,0-0.1
				c0,0-0.1-0.1-0.1-0.1l-0.2,0l0.5-0.8l0.5,0.8l-0.2,0c-0.1,0-0.1,0-0.1,0.1c0,0,0,0.1,0,0.1C20,25.2,20.1,25.2,20.1,25.2z
				 M19.8,25.2L19.8,25.2c0,0,0-0.1,0-0.1C19.8,25.1,19.8,25.2,19.8,25.2z M19.6,24.8c0.1,0,0.1,0.1,0.1,0.1c0,0,0,0.1,0,0.1
				c0,0,0-0.1,0-0.1c0-0.1,0.1-0.1,0.1-0.1l-0.2-0.2L19.6,24.8z"/>
		</g>
	</g>
	<g>
		<g>
			<path class="st0" d="M25.4,30.9C25.4,30.9,25.4,30.9,25.4,30.9c-0.4-0.2-0.7-0.5-0.7-0.5c0,0,0-0.1,0-0.1c0,0,0.1,0,0.1,0
				c0,0,0.2,0.3,0.6,0.4C25.5,30.8,25.5,30.8,25.4,30.9C25.5,30.9,25.4,30.9,25.4,30.9z M23.6,30.3C23.6,30.3,23.6,30.3,23.6,30.3
				c-0.5-0.6-0.4-1-0.4-1c0-0.1,0.1-0.1,0.1-0.1c0.1,0,0.1,0.1,0.1,0.1c0,0-0.1,0.3,0.3,0.8C23.7,30.2,23.7,30.3,23.6,30.3
				C23.7,30.3,23.7,30.3,23.6,30.3z M22.4,28.2C22.4,28.2,22.4,28.2,22.4,28.2c-0.1-0.1-0.1-0.1-0.1-0.2c0.1-0.1,0.4-0.6,0.6-1.1
				c0.2-0.5,0.1-1.1,0.1-1.1c0-0.1,0-0.1,0.1-0.1c0,0,0,0,0,0c-0.2-0.1-0.3-0.2-0.4-0.2c0,0,0,0,0,0l0,0l0,0c0,0,0,0,0-0.1
				c0,0,0-0.1,0-0.1c0,0,0.1,0,0.1,0v0c0,0,0.7,0.6,1.5,0.5c0.4-0.1,0.7-0.3,1-0.7l0,0c-0.7-0.4-1.6-0.7-1.6-0.7
				c0,0-0.1-0.1-0.1-0.1c0,0,0.1-0.1,0.1-0.1c0,0,0.9,0.3,1.7,0.7c0,0,0,0,0,0.1c0,0,0,0,0,0c0,0,0.1,0.1,0,0.1
				c-0.5,0.9-1.2,1-1.7,0.9c-0.2,0-0.4-0.1-0.6-0.2c0,0,0,0,0,0.1c0,0,0.1,0.7-0.1,1.2C22.9,27.6,22.6,28,22.4,28.2
				C22.4,28.2,22.4,28.2,22.4,28.2z M24.8,27.9C24.8,27.9,24.8,27.9,24.8,27.9c-0.1,0-0.1-0.1-0.1-0.1c0.1-0.5,0.1-0.8,0.1-0.9
				c-0.1,0-0.2,0-0.2,0c0,0.1,0,0.3-0.1,0.5c-0.1,0.3-0.1,0.3-0.1,0.4c0,0-0.1,0-0.1,0c0,0-0.1-0.1,0-0.1c0,0,0-0.1,0.1-0.3
				c0.1-0.2,0.1-0.4,0-0.5c0,0-0.1,0-0.1,0c0,0.1,0,0.2,0,0.3c0,0.1-0.1,0.1-0.1,0.1c-0.1,0-0.1-0.1-0.1-0.1c0-0.1,0-0.2,0-0.3
				c-0.1,0-0.1,0-0.2,0c-0.1,0-0.1-0.1-0.1-0.1c0,0,0.1-0.1,0.1-0.1c0,0,0.5,0.2,0.9,0c0.1-0.1,0.2-0.2,0.3-0.3
				c-0.9,0.3-1.6-0.1-1.7-0.2c0,0-0.1-0.1,0-0.1c0,0,0.1-0.1,0.1,0c0,0,0.7,0.5,1.7,0.1l0,0c0,0,0.5-0.3,0.6-0.7
				c0-0.1,0.1-0.1,0.1-0.1c0.1,0,0.1,0.1,0.1,0.1c-0.1,0.6-0.7,0.9-0.7,0.9c0,0,0,0,0,0l0,0c0,0,0,0,0,0.1c0,0.1,0,0.2,0,0.3
				c0.1,0.1,0.3,0.1,0.4,0.1l0,0l0,0c0,0,0.2,0,0.3-0.4c0-0.2,0-0.4,0.1-0.5c0-0.1,0-0.3,0-0.3l0.2,0c0,0,0,0.1,0,0.3
				c0,0.3,0,0.7,0.1,0.8c0,0,0,0,0.1,0c0.2,0,0.3,0,0.3-0.1c0,0,0.1-0.1,0.1-0.2c0-0.2,0-0.6,0-0.6c0-0.1,0-0.1,0.1-0.1
				c0.1,0,0.1,0,0.1,0.1c0,0,0,0.4,0,0.6c0,0.1,0,0.1,0,0.2c0,0,0.1,0,0.1,0c0,0,0.1,0,0.1-0.1l0-0.1c0,0,0,0,0,0c0,0,0,0,0,0l0-0.4
				c0-0.1,0-0.1,0.1-0.1c0.1,0,0.1,0,0.1,0.1l0,0.4c0,0,0,0.1,0.1,0.1c0,0,0,0,0.1,0c0,0,0.1,0,0.1,0.1c0,0.1,0,0.1-0.1,0.1
				c-0.1,0-0.2,0-0.3,0c0,0.1,0,0.2,0,0.4c0,0,0,0.1-0.1,0.1c0,0-0.1,0-0.1-0.1c-0.1-0.2-0.1-0.3-0.1-0.4c0,0,0,0-0.1,0
				c-0.1,0-0.1,0-0.2-0.1c0,0,0,0,0,0c0,0,0,0,0,0c0,0,0,0.2,0.1,0.4c0,0,0,0.1-0.1,0.1c0,0-0.1,0-0.1,0c-0.1-0.2-0.1-0.3-0.1-0.4
				c-0.1,0-0.1,0-0.2,0c0,0-0.1,0-0.1,0c0,0.1,0,0.2,0.1,0.3c0,0,0,0.1-0.1,0.1c0,0-0.1,0-0.1-0.1c-0.1-0.3-0.1-0.5-0.1-0.6
				c0,0,0,0,0-0.1c-0.1,0.1-0.2,0.2-0.2,0.2c0,0.1,0,0.4,0,0.4c0,0.1,0,0.1-0.1,0.1c-0.1,0-0.1,0-0.1-0.1c0-0.1,0-0.3,0-0.4
				c-0.1,0-0.1,0-0.2,0c0,0.1-0.1,0.5-0.1,0.8c0,0.1,0,0.1-0.1,0.1c-0.1,0-0.1,0-0.1-0.1c0-0.3,0.1-0.7,0.1-0.9
				c-0.1,0-0.1-0.1-0.2-0.1c0,0-0.1-0.1-0.1-0.1c-0.1,0.1-0.1,0.1-0.2,0.2C25,26.9,25,27.3,24.8,27.9C24.9,27.9,24.8,27.9,24.8,27.9
				z M22.1,27.2C22,27.2,22,27.2,22.1,27.2c-0.1-0.1-0.1-0.1,0-0.8c0-0.1,0.1-0.1,0.1-0.1c0.1,0,0.1,0.1,0.1,0.1
				c0,0.3-0.1,0.6-0.1,0.7C22.2,27.1,22.2,27.1,22.1,27.2C22.1,27.2,22.1,27.2,22.1,27.2z M24.1,25.8c-0.9,0-1.2-1-1.2-1
				c0-0.1,0-0.1,0.1-0.1c0.1,0,0.1,0,0.1,0.1c0,0,0.3,1,1.3,0.8c0.1,0,0.1,0,0.1,0.1c0,0.1,0,0.1-0.1,0.1
				C24.2,25.8,24.1,25.8,24.1,25.8z M22.2,25.1C22.2,25.1,22.2,25.1,22.2,25.1c-0.1,0-0.2-0.1-0.3-0.5c0-0.3,0-0.5,0.1-0.8
				c0-0.1,0.1-0.3,0.1-0.5c0.1-0.5,0.3-0.9,0.3-0.9c0,0,0.1-0.1,0.1,0c0,0,0.1,0.1,0,0.1c0,0-0.2,0.4-0.2,0.9c0,0.2-0.1,0.3-0.1,0.5
				c-0.1,0.2-0.1,0.4-0.1,0.7c0.1,0.3,0.1,0.3,0.1,0.3C22.3,24.9,22.4,24.9,22.2,25.1C22.3,25,22.3,25.1,22.2,25.1z M25.6,23.4
				C25.6,23.4,25.6,23.4,25.6,23.4c-0.3-0.1-0.8-0.5-0.8-0.5c0,0,0-0.1,0-0.1c0,0,0.1,0,0.1,0c0.1,0.1,0.5,0.4,0.7,0.5
				C25.7,23.3,25.7,23.3,25.6,23.4C25.7,23.4,25.7,23.4,25.6,23.4z M25.3,22.4C25.3,22.4,25.3,22.4,25.3,22.4
				c-0.2-0.3-0.7-0.4-0.8-0.5c0,0-0.1-0.1-0.1-0.1c0,0,0.1-0.1,0.1-0.1c0,0,0.5,0.1,0.7,0.4c-0.2-0.2-0.6-0.4-0.6-0.4
				c-0.1,0-0.1-0.1-0.1-0.1c0,0,0.1-0.1,0.1-0.1c0,0,0.5,0.2,0.7,0.4c0,0,0,0.1,0,0.1c0,0-0.1,0-0.1,0c0,0,0.1,0.1,0.1,0.1
				C25.4,22.3,25.4,22.3,25.3,22.4C25.3,22.4,25.3,22.4,25.3,22.4z M27.2,22.1C27.2,22.1,27.2,22.1,27.2,22.1
				c-0.3-0.4-0.4-0.9-0.4-0.9c0-0.1,0-0.1,0.1-0.1c0,0,0.1,0,0.1,0.1c0,0,0.1,0.5,0.3,0.9C27.3,22,27.3,22,27.2,22.1
				C27.3,22.1,27.2,22.1,27.2,22.1z M26.5,21.6C26.5,21.6,26.5,21.6,26.5,21.6c-0.1,0-0.1-0.1-0.1-0.1c0,0,0.1-0.5,0.1-0.9
				c0-0.1,0-0.1,0.1-0.1c0.1,0,0.1,0,0.1,0.1C26.7,21,26.6,21.5,26.5,21.6C26.6,21.5,26.5,21.6,26.5,21.6z M24,20.6
				c-0.4,0-0.7-0.3-0.7-0.3c0,0,0-0.1,0-0.1c0,0,0.1,0,0.1,0c0,0,0.2,0.3,0.5,0.3c0.2,0,0.5-0.2,0.7-0.4c0,0,0.1,0,0.1,0
				c0,0,0,0.1,0,0.1C24.6,20.4,24.3,20.6,24,20.6C24.1,20.6,24,20.6,24,20.6z M24,20.1c-0.4,0-0.6-0.3-0.6-0.3c0,0,0-0.1,0-0.1
				c0,0,0.1,0,0.1,0c0,0,0.2,0.2,0.5,0.2c0.2,0,0.3-0.1,0.5-0.2c0,0,0.1,0,0.1,0c0,0,0,0.1,0,0.1C24.4,20,24.2,20.1,24,20.1
				C24,20.1,24,20.1,24,20.1z M27.5,19.9c0,0-0.1,0-0.2,0c0,0-0.1-0.1-0.1-0.1c0,0,0.1-0.1,0.1-0.1c0.1,0,0.1,0,0.1,0
				c0,0,0.1,0,0.1,0.1C27.6,19.8,27.6,19.8,27.5,19.9C27.5,19.8,27.5,19.9,27.5,19.9z M25.6,19.7C25.6,19.7,25.6,19.7,25.6,19.7
				c-0.2,0-0.2-0.1-0.3-0.2c0,0,0,0,0,0c-0.1,0-0.1,0-0.1-0.1c0-0.1,0-0.1,0.1-0.1c0,0,0.1,0,0.1,0c-0.1,0-0.1-0.1-0.1-0.2
				c0,0,0,0,0,0c0,0-0.4,0.1-0.8,0c-0.4-0.1-0.6,0.1-0.6,0.1c0,0-0.1,0-0.1,0c0,0,0-0.1,0-0.1c0,0,0.4-0.2,0.8-0.1
				c0.4,0.1,0.7,0,0.7,0c0,0,0.1,0,0.1,0c0,0,0,0,0,0c0,0,0.1,0,0.1,0.1c0,0.1,0.1,0.1,0.1,0.1c0,0,0-0.2,0-0.2l0.2-0.1
				c0,0,0,0.2,0.1,0.2c0,0.1,0,0.1,0,0.2c0,0-0.1,0.1-0.1,0.1c0,0,0,0-0.1,0c0,0,0,0,0,0l0,0c0,0,0,0,0.1,0c0,0,0,0,0,0
				c0,0,0,0,0-0.1c0-0.1,0-0.1,0.1-0.1c0,0,0.1,0,0.1,0.1c0,0,0,0.1,0,0.2C25.7,19.7,25.7,19.7,25.6,19.7z M27.5,19.5
				c-0.1,0-0.2-0.1-0.2-0.2c0,0,0-0.1,0-0.1c0,0,0.1,0,0.1,0c0,0,0.1,0.1,0.1,0.1c0,0,0.1,0,0.1,0c0,0,0.1,0,0.1,0
				c0,0,0.1,0.1,0.1,0.1c0,0-0.1,0.1-0.1,0.1c0,0,0,0,0,0C27.6,19.5,27.6,19.5,27.5,19.5C27.5,19.5,27.5,19.5,27.5,19.5z M27.3,18.9
				l-0.5-0.3l0.5-0.2c-0.3,0-0.5,0.2-0.5,0.2c0,0-0.1,0-0.1,0c0,0,0-0.1,0-0.1c0,0,0.4-0.2,0.8-0.2c0.1,0,0.1,0.1,0.1,0.1
				c0,0,0,0.1-0.1,0.1c0,0,0,0,0,0c0,0,0,0.1-0.1,0.1l0,0C27.4,18.7,27.3,18.8,27.3,18.9L27.3,18.9z M23.9,18.6
				C23.9,18.6,23.8,18.6,23.9,18.6c-0.1-0.1-0.1-0.1,0-0.2c0,0,0.2-0.1,0.4-0.1c0.1,0,0.2-0.1,0.3-0.2l0,0c0.1-0.1,0.3-0.2,0.4-0.1
				c0,0,0,0.1,0,0.1c0,0-0.1,0-0.1,0c0,0-0.1,0-0.2,0.1c-0.1,0.1-0.2,0.3-0.4,0.3C24,18.5,23.9,18.6,23.9,18.6
				C23.9,18.6,23.9,18.6,23.9,18.6z M25.7,18.5C25.7,18.5,25.6,18.5,25.7,18.5c-0.4,0-0.7,0-0.7,0c-0.1,0-0.1,0-0.1-0.1
				c0-0.1,0-0.1,0.1-0.1c0,0,0.3,0,0.6,0c0.3,0,0.7-0.2,0.7-0.2c0,0,0.1,0,0.1,0c0,0,0,0.1,0,0.1C26.4,18.3,26.1,18.5,25.7,18.5z
				 M24.2,18.4C24.2,18.4,24.2,18.3,24.2,18.4c-0.1-0.1-0.1-0.1,0-0.4c0,0,0.1-0.1,0.1-0.1c0.1,0,0.1,0.1,0.1,0.1c0,0,0,0.1,0,0.1
				c0,0,0,0,0,0c0,0,0.1-0.1,0.1-0.3c0-0.1,0-0.1,0-0.2c0,0,0,0,0-0.1c0,0,0-0.1,0.1-0.1c0.1,0,0.1,0,0.1,0.3c0,0.4-0.1,0.5-0.1,0.5
				c0,0-0.1,0-0.1,0c0,0,0,0,0,0c0,0,0,0.1,0,0.1C24.3,18.3,24.3,18.3,24.2,18.4C24.3,18.4,24.3,18.4,24.2,18.4z M26.3,18
				c-0.2,0-0.5,0-0.5,0c-0.2,0-0.5,0-0.5,0c-0.1,0-0.1,0-0.1-0.1c0-0.1,0-0.1,0.1-0.1c0,0,0.3,0,0.5,0c0.2,0,0.7,0,0.8,0
				c0,0,0.1,0,0.1,0c0,0,0.1,0.1,0.1,0.1C26.7,18,26.5,18,26.3,18z M24.9,18C24.9,18,24.9,18,24.9,18c-0.1-0.1-0.2-0.2-0.1-0.3
				c0-0.1,0.1-0.2,0.1-0.3c0-0.1,0-0.4,0.2-0.5c0.1,0,0.1,0,0.1,0.1c0,0,0,0.1,0,0.1c0,0-0.1,0.2-0.1,0.3c0,0.1,0,0.2,0,0.3
				c0,0,0,0,0,0c0,0,0.1-0.1,0.2-0.2l0,0c0,0,0-0.1,0-0.1c0,0,0-0.4,0.1-0.5c0,0,0.1,0,0.1,0c0,0,0,0.1,0,0.1
				c-0.1,0.1-0.1,0.3-0.1,0.4c0,0,0,0,0,0c0.2,0,0.3,0.1,0.3,0.1c0,0,0,0.1,0,0.1c0,0-0.1,0-0.1,0c0,0-0.1-0.1-0.2,0l-0.1,0.1
				c0,0-0.1,0.1-0.1,0c0,0-0.1,0.1-0.1,0.1c0,0,0,0,0,0c0,0,0,0.1,0,0.1c0,0-0.1,0-0.1,0c0,0-0.1-0.1-0.1-0.2c0,0,0,0,0,0.1
				c0,0,0,0,0,0C25,17.9,25,17.9,24.9,18C25,18,25,18,24.9,18z M27.2,17.8c-0.1,0-0.2,0-0.4-0.1c-0.2-0.1-0.5-0.1-0.6-0.1
				c-0.1,0-0.1,0-0.1-0.1c0-0.1,0-0.1,0.1-0.1c0,0,0.4,0,0.7,0.2c0.2,0.1,0.3,0.1,0.3,0.1c0,0,0.1,0,0.1,0.1
				C27.4,17.7,27.4,17.8,27.2,17.8C27.3,17.8,27.3,17.8,27.2,17.8z M26.1,17.5C26,17.5,26,17.5,26.1,17.5c-0.1-0.1-0.2-0.1-0.3-0.1
				l-0.1-0.2c0,0,0.2-0.2,0.2-0.6c0-0.1,0-0.1,0.1-0.1c0.1,0,0.1,0,0.1,0.1c0,0.2-0.1,0.4-0.1,0.5l0.2-0.1c0,0,0,0,0,0
				c0,0,0-0.1,0.1-0.1c0.1-0.2,0.2-0.4,0.2-0.4c0-0.1,0-0.1,0.1-0.1c0.1,0,0.1,0,0.1,0.1c0,0,0,0.2-0.1,0.4c0,0,0.1,0,0.1,0
				c0,0,0,0,0,0c0,0,0,0,0,0c0,0,0,0,0,0c0.1-0.1,0.2-0.4,0.2-0.5c0-0.1,0-0.1,0.1-0.1c0.1,0,0.1,0,0.1,0.1c0,0.1,0,0.3-0.1,0.4
				c0.1,0,0.1,0,0.2,0c0.1-0.1,0.2-0.3,0.2-0.4c0-0.1,0-0.1,0.1-0.1c0.1,0,0.1,0,0.1,0.1c0,0.1-0.1,0.3-0.2,0.4
				c0.2,0,0.3,0.1,0.3,0.3c0,0.1,0,0.1-0.1,0.1c-0.1,0-0.1,0-0.1-0.1c0-0.1-0.1-0.1-0.1-0.1c0,0,0,0.1-0.1,0.1c-0.1,0-0.1,0-0.1-0.1
				c0,0,0,0,0-0.1c-0.1,0-0.1,0-0.2,0c0,0,0,0,0,0c0,0,0,0.1,0,0.1c0,0-0.1,0-0.1,0c0,0-0.1-0.1-0.2-0.1c-0.1,0-0.1,0-0.2,0
				c0,0,0,0,0,0c0,0,0,0.1,0,0.1c0,0-0.1,0-0.1,0c0,0-0.1,0-0.1,0l-0.2,0.1c0,0,0,0,0,0C26.2,17.4,26.2,17.4,26.1,17.5
				C26.1,17.5,26.1,17.5,26.1,17.5z"/>
		</g>
	</g>
	<g>
		<g>
			<path class="st0" d="M35.5,37.3c-0.4,0-0.6-0.1-0.7-0.1l0.1-0.2c0,0,1,0.4,2.4-0.6l0.1,0.2C36.6,37.1,35.9,37.3,35.5,37.3z"/>
		</g>
	</g>
	<g>
		<g>
			<path class="st0" d="M35.7,34.7c-0.5,0-0.9-0.2-0.9-0.3l0.1-0.2c0,0,0.8,0.4,1.3,0.1l0.1,0.2C36.1,34.6,35.9,34.7,35.7,34.7z"/>
		</g>
	</g>
	<g>
		<g>
			<path class="st0" d="M34.6,36.3c-1,0-1.9-0.3-2-0.3l0.1-0.2c0,0,2.4,0.7,3.9-0.2l0.1,0.2C36.1,36.2,35.3,36.3,34.6,36.3z"/>
		</g>
	</g>
	<g>
		<g>
			
				<rect x="17.7" y="38" transform="matrix(3.820822e-02 -0.9993 0.9993 3.820822e-02 -20.7226 54.7141)" class="st0" width="0.7" height="0.2"/>
		</g>
	</g>
	<g>
		<g>
			<polygon class="st0" points="40.9,39.9 17.2,39.9 17.2,38.4 23.9,38.4 23.9,38.6 17.4,38.6 17.4,39.7 40.7,39.7 40.7,38.4 
				40.1,38.4 40.1,38.2 40.9,38.2 			"/>
		</g>
	</g>
	<g>
		<g>
			<path class="st0" d="M35.1,48.4l1.8-0.7l-0.2-0.5l-1.3,0.5L35.2,47l1.2-0.4l-0.2-0.5L35,46.6L34.8,46l1.3-0.5L35.9,45l-1.8,0.7
				L35.1,48.4z M31.3,49.2l1.8-0.3L33,48.4l-1.2,0.2l-0.4-2.3l-0.6,0.1L31.3,49.2z M29,49.4l0.6,0l0-2.9l-0.6,0L29,49.4z M25.1,49
				l0.6,0.1l0.2-1.2l1,0.1l-0.2,1.2l0.6,0.1l0.4-2.8l-0.6-0.1L27,47.5l-1-0.1l0.1-1.1l-0.6-0.1L25.1,49z M23.3,46.6
				c0.2-0.6-0.1-1.2-0.7-1.4c-0.7-0.3-1.4,0.2-1.7,0.9c-0.3,0.8-0.1,1.6,0.6,1.8c0.6,0.2,1.2,0,1.5-0.7l-0.5-0.2
				c-0.2,0.3-0.5,0.5-0.8,0.4c-0.5-0.2-0.5-0.7-0.3-1.2c0.2-0.5,0.5-0.8,1-0.7c0.3,0.1,0.4,0.4,0.3,0.7L23.3,46.6z"/>
		</g>
	</g>
	<g>
		<g>
			<path class="st0" d="M44.4,40.8L44.4,40.8l-1-0.4l0.4-0.5L44.4,40.8z M43.5,38.5l-0.4,0.5l0.4,0.5l-0.6,0.8L42.3,40l-0.4,0.5
				l2.9,1l0.4-0.5L43.5,38.5z M45.3,39.2c0.6,0.2,1.2,0,1.4-0.5c0.4-0.7,0-1.4-0.8-1.8c-0.7-0.4-1.5-0.2-1.9,0.5
				c-0.3,0.6-0.1,1.2,0.5,1.5l0.2-0.5c-0.3-0.2-0.5-0.5-0.3-0.8c0.2-0.5,0.7-0.4,1.2-0.2c0.4,0.2,0.8,0.6,0.6,1.1
				c-0.1,0.3-0.4,0.4-0.7,0.3L45.3,39.2z M45,35.3l-0.2,0.5l2.7,1l0.2-0.5L45,35.3z M45.6,33.3l-0.5,1.8l0.5,0.1L46,34l2.3,0.6
				l0.2-0.5L45.6,33.3z M48.3,31.7l-0.1,0.5c0,0.2-0.1,0.4-0.4,0.3c-0.2,0-0.3-0.2-0.3-0.4l0.1-0.6L48.3,31.7z M46,30.8L45.8,32
				c-0.1,0.5,0.1,0.9,0.7,1c0.4,0,0.6-0.1,0.8-0.4c0.1,0.2,0.3,0.4,0.6,0.4c0.5,0.1,0.7-0.2,0.8-0.7l0.2-1.2L46,30.8z M47.2,31.5
				l-0.1,0.6c0,0.2-0.2,0.4-0.5,0.4c-0.3,0-0.4-0.2-0.3-0.5l0.1-0.6L47.2,31.5z M49,30.2l0-0.6l-1.8,0c-0.4,0-0.6-0.1-0.6-0.5
				c0-0.5,0.3-0.5,0.6-0.5l1.8,0l0-0.6l-1.8,0c-0.8,0-1.1,0.4-1.1,1.1c0,0.7,0.4,1.1,1.2,1.1L49,30.2z M48.1,25.9l0.1,0.4
				c0,0.3,0,0.5-0.3,0.6c-0.4,0.1-0.5-0.2-0.5-0.4L47.3,26L48.1,25.9z M45.7,25.7l0.1,0.6l1-0.2l0.1,0.6c0.1,0.6,0.6,0.8,1.1,0.7
				c0.5-0.1,0.9-0.4,0.8-1l-0.2-1.1L45.7,25.7z M45.1,23.4l0.6,1.9l0.5-0.2l-0.4-1.3l0.7-0.2l0.4,1.2l0.5-0.2l-0.4-1.2l0.6-0.2
				l0.4,1.3l0.5-0.2l-0.6-1.8L45.1,23.4z M46.4,20.5l0.3,0.6c0.1,0.2,0.1,0.4-0.2,0.5c-0.3,0.1-0.4,0.1-0.5-0.2l-0.3-0.6L46.4,20.5z
				 M44,21.1l0.3,0.5l1-0.5l0.3,0.5c0.1,0.3,0.1,0.4-0.2,0.6c-0.2,0.1-0.4,0.2-0.6,0.4L45,23c0.1-0.2,0.4-0.3,0.6-0.4
				c0.3-0.1,0.5-0.3,0.4-0.6l0,0c0.2,0.2,0.5,0.2,0.8,0c0.4-0.2,0.6-0.6,0.4-1l-0.6-1.2L44,21.1z M44.4,17.7L44.4,17.7l-0.6,0.9
				l-0.4-0.5L44.4,17.7z M41.9,18l0.4,0.5l0.6-0.2l0.6,0.8l-0.4,0.5l0.4,0.5l1.7-2.5L44.8,17L41.9,18z M40.6,16.7l1.3,1.3l0.4-0.4
				l-0.9-0.9l1.7-1.6l-0.4-0.4L40.6,16.7z M38,14.7l1.6,1.1l0.3-0.4l-1.1-0.8l0.4-0.6l1,0.7l0.3-0.4l-1-0.7l0.4-0.5l1.1,0.8l0.3-0.4
				l-1.6-1.1L38,14.7z M37.2,11.6l0.4,0.2c0.5,0.3,0.5,0.7,0.2,1.2c-0.3,0.6-0.7,0.6-1,0.5l-0.5-0.2L37.2,11.6z M35.7,13.4l1,0.5
				c0.7,0.4,1.3,0,1.7-0.8c0.4-0.9,0.2-1.5-0.4-1.8l-1-0.5L35.7,13.4z M32.8,12.5l1.8,0.5l0.1-0.5l-1.2-0.3l0.6-2.3l-0.5-0.2
				L32.8,12.5z M31.6,10.1L31.6,10.1l0.2,1.1l-0.7-0.1L31.6,10.1z M30,12.1l0.6,0.1l0.3-0.6l1,0.1l0.1,0.7l0.6,0.1l-0.6-3l-0.6-0.1
				L30,12.1z M28.2,9.7l0.6,0c0.3,0,0.4,0.1,0.4,0.4c0,0.3-0.1,0.4-0.4,0.4l-0.6,0L28.2,9.7z M27.7,12.1l0.6,0l0-1.1l0.6,0
				c0.3,0,0.4,0.1,0.4,0.4c0,0.2,0,0.5,0.1,0.7l0.6,0c-0.1-0.2-0.1-0.5-0.1-0.7c0-0.3-0.1-0.6-0.4-0.7v0c0.3-0.1,0.4-0.4,0.4-0.7
				c0-0.4-0.3-0.8-0.8-0.8l-1.4,0L27.7,12.1z M25.4,12.4l1.9-0.3l-0.1-0.5l-1.4,0.2l-0.1-0.7l1.2-0.2l-0.1-0.5l-1.2,0.2L25.5,10
				l1.3-0.2l-0.1-0.5l-1.9,0.3L25.4,12.4z M22.8,13.2l0.5-0.2l-0.6-1.8l0,0l1.6,1.5l0.5-0.2L24,9.8l-0.5,0.2l0.6,1.8l0,0l-1.6-1.5
				l-0.5,0.2L22.8,13.2z M20.6,14.2l1.8-0.9l-0.2-0.5l-1.2,0.6l-0.3-0.6l1.1-0.6l-0.2-0.4l-1.1,0.6l-0.3-0.6l1.2-0.6l-0.2-0.5
				l-1.7,0.9L20.6,14.2z M19.9,14.6l0.3-0.2l-0.9-1.3l-0.9,0.6l0.3,0.4l0.5-0.3c0.2,0.3,0.2,0.6-0.2,0.9c-0.4,0.3-0.8,0-1.1-0.4
				c-0.3-0.4-0.4-0.9,0-1.2c0.2-0.2,0.5-0.1,0.7,0.1l0.4-0.3c-0.4-0.5-1-0.5-1.5-0.2c-0.7,0.5-0.7,1.3-0.2,2
				c0.5,0.7,1.2,0.9,1.9,0.5c0.2-0.1,0.4-0.4,0.4-0.7L19.9,14.6z M15,15.8L15,15.8l1,0.5l-0.5,0.5L15,15.8z M15.7,18.2l0.4-0.4
				l-0.3-0.6l0.7-0.7l0.6,0.3l0.4-0.4l-2.7-1.3l-0.4,0.4L15.7,18.2z M15.2,18.8l0.3-0.5l-2.3-1.8L12.9,17L15.2,18.8z M12.1,19.2
				l0.3-0.5c0.1-0.2,0.3-0.3,0.5-0.1c0.2,0.2,0.3,0.3,0.1,0.5l-0.3,0.5L12.1,19.2z M13.8,20.9l0.3-0.5l-0.9-0.6l0.3-0.5
				c0.2-0.2,0.3-0.3,0.6-0.1c0.2,0.1,0.4,0.3,0.6,0.3L15,19c-0.2,0-0.5-0.2-0.6-0.3c-0.3-0.1-0.6-0.2-0.8,0l0,0
				c0-0.3-0.1-0.5-0.4-0.7c-0.4-0.2-0.8-0.2-1.1,0.2l-0.7,1.2L13.8,20.9z M11.5,22.5c-0.5-0.2-0.8-0.6-0.6-1
				c0.2-0.5,0.7-0.5,1.2-0.2c0.4,0.2,0.8,0.6,0.6,1C12.4,22.7,11.9,22.7,11.5,22.5 M11.3,23c0.8,0.3,1.6,0.2,1.9-0.6
				c0.3-0.7-0.1-1.4-0.9-1.8c-0.8-0.3-1.6-0.2-1.9,0.6C10.1,22,10.5,22.7,11.3,23 M12,25.6l0.5-1.8L12,23.7l-0.3,1.2l-2.3-0.6
				l-0.1,0.5L12,25.6z M9.7,26.8L9.7,26.8l1.1-0.2l-0.1,0.7L9.7,26.8z M11.6,28.3l0.1-0.6l-0.6-0.3l0.1-1l0.7-0.1l0.1-0.6l-3,0.6
				L8.9,27L11.6,28.3z M9.3,30.1l0-0.6c0-0.3,0.1-0.4,0.4-0.4c0.3,0,0.4,0.1,0.4,0.4l0,0.6L9.3,30.1z M11.7,30.7l0-0.6l-1.1,0l0-0.6
				c0-0.3,0.1-0.4,0.4-0.4c0.2,0,0.5,0,0.7-0.1l0-0.6c-0.2,0.1-0.5,0.1-0.7,0.1c-0.3,0-0.6,0.1-0.7,0.4h0c-0.1-0.3-0.4-0.4-0.7-0.4
				c-0.4,0-0.8,0.3-0.8,0.8l0,1.4L11.7,30.7z M11.9,32.3l-0.1-0.6l-2.3,0.4l-0.1-0.8l-0.5,0.1l0.3,2.1l0.5-0.1l-0.1-0.8L11.9,32.3z
				 M12.8,35.4l-0.2-0.5l-1.8,0.6l0,0l1.5-1.6l-0.2-0.5l-2.7,0.9l0.2,0.5l1.8-0.6l0,0l-1.5,1.6l0.2,0.5L12.8,35.4z M12.5,38.2
				c-0.4,0.2-1,0.3-1.2-0.2c-0.2-0.5,0.1-0.8,0.6-1.1c0.4-0.2,0.9-0.3,1.2,0.2C13.3,37.6,12.9,38,12.5,38.2 M12.8,38.7
				c0.7-0.4,1.1-1.1,0.8-1.8c-0.4-0.7-1.2-0.8-1.9-0.5c-0.8,0.4-1.1,1.1-0.8,1.8C11.2,39,12,39.1,12.8,38.7 M12.7,39.4
				c-0.5,0.4-0.5,1-0.2,1.5c0.5,0.7,1.3,0.7,2,0.2c0.7-0.5,0.9-1.2,0.5-1.9c-0.4-0.5-1-0.6-1.6-0.3l0.3,0.4c0.3-0.2,0.7-0.2,0.9,0.1
				c0.3,0.4,0,0.8-0.4,1.1c-0.4,0.3-0.9,0.4-1.2,0c-0.2-0.2-0.1-0.6,0.1-0.8L12.7,39.4z"/>
		</g>
	</g>
</g>
</svg>
